ply
format ascii 1.0
comment Created by Blender 2.80 (sub 75) - www.blender.org, source file: ''
element vertex 600
property float x
property float y
property float z
property float nx
property float ny
property float nz
property uchar red
property uchar green
property uchar blue
property uchar alpha
element face 200
property list uchar uint vertex_indices
end_header
-0.004363 0.000073 0.217396 0.017618 0.231462 0.972684 13 173 3 255
0.012975 0.014467 0.213657 0.017618 0.231462 0.972684 13 173 3 255
-0.010761 0.022924 0.212075 0.017618 0.231462 0.972684 13 173 3 255
-0.004363 0.000073 0.217396 -0.270409 0.145922 0.951623 13 173 3 255
-0.010761 0.022924 0.212075 -0.270409 0.145922 0.951623 13 173 3 255
-0.024211 -0.004104 0.212397 -0.270409 0.145922 0.951623 13 173 3 255
-0.014388 -0.018250 0.212757 -0.431639 -0.277863 0.858184 13 173 3 255
-0.024211 -0.004104 0.212397 -0.431639 -0.277863 0.858184 13 173 3 255
-0.028986 -0.026047 0.202890 -0.431639 -0.277863 0.858184 13 173 3 255
-0.004363 0.000073 0.217396 -0.217254 -0.126201 0.967923 13 173 3 255
-0.024211 -0.004104 0.212397 -0.217254 -0.126201 0.967923 13 173 3 255
-0.014388 -0.018250 0.212757 -0.217254 -0.126201 0.967923 13 173 3 255
-0.039900 0.002094 0.202346 -0.585168 -0.211783 0.782768 13 173 3 255
-0.028986 -0.026047 0.202890 -0.585168 -0.211783 0.782768 13 173 3 255
-0.024211 -0.004104 0.212397 -0.585168 -0.211783 0.782768 13 173 3 255
-0.029389 0.021351 0.204923 -0.365823 0.192914 0.910471 13 173 3 255
-0.024211 -0.004104 0.212397 -0.365823 0.192914 0.910471 13 173 3 255
-0.010761 0.022924 0.212075 -0.365823 0.192914 0.910471 13 173 3 255
-0.033991 -0.034460 0.191921 -0.666093 -0.413316 0.620878 13 173 3 255
-0.028986 -0.026047 0.202890 -0.666093 -0.413316 0.620878 13 173 3 255
-0.045287 -0.018127 0.190675 -0.666093 -0.413316 0.620878 13 173 3 255
-0.016739 0.044811 0.190860 -0.178941 0.758606 0.626496 13 173 3 255
-0.014348 0.033855 0.204809 -0.178941 0.758606 0.626496 13 173 3 255
0.003010 0.042314 0.199524 -0.178941 0.758606 0.626496 13 173 3 255
-0.029389 0.021351 0.204923 -0.354595 0.434088 0.828149 13 173 3 255
-0.010761 0.022924 0.212075 -0.354595 0.434088 0.828149 13 173 3 255
-0.014348 0.033855 0.204809 -0.354595 0.434088 0.828149 13 173 3 255
-0.035521 0.033855 0.189938 -0.423737 0.675639 0.603290 13 173 3 255
-0.014348 0.033855 0.204809 -0.423737 0.675639 0.603290 13 173 3 255
-0.016739 0.044811 0.190860 -0.423737 0.675639 0.603290 13 173 3 255
-0.035521 0.033855 0.189938 -0.468883 0.766945 0.438115 13 173 3 255
-0.016739 0.044811 0.190860 -0.468883 0.766945 0.438115 13 173 3 255
-0.023941 0.051131 0.172088 -0.468883 0.766945 0.438115 13 173 3 255
-0.029389 0.021351 0.204923 -0.471124 0.572824 0.670757 13 173 3 255
-0.014348 0.033855 0.204809 -0.471124 0.572824 0.670757 13 173 3 255
-0.035521 0.033855 0.189938 -0.471124 0.572824 0.670757 13 173 3 255
-0.041491 0.038609 0.171585 -0.546158 0.750514 0.372076 13 173 3 255
-0.035521 0.033855 0.189938 -0.546158 0.750514 0.372076 13 173 3 255
-0.023941 0.051131 0.172088 -0.546158 0.750514 0.372076 13 173 3 255
-0.039900 0.002094 0.202346 -0.489765 0.152422 0.858427 13 173 3 255
-0.024211 -0.004104 0.212397 -0.489765 0.152422 0.858427 13 173 3 255
-0.029389 0.021351 0.204923 -0.489765 0.152422 0.858427 13 173 3 255
-0.046959 0.013708 0.190302 -0.682867 0.398726 0.612136 13 173 3 255
-0.029389 0.021351 0.204923 -0.682867 0.398726 0.612136 13 173 3 255
-0.035521 0.033855 0.189938 -0.682867 0.398726 0.612136 13 173 3 255
-0.046959 0.013708 0.190302 -0.784940 0.453242 0.422423 13 173 3 255
-0.035521 0.033855 0.189938 -0.784940 0.453242 0.422423 13 173 3 255
-0.053693 0.020745 0.170239 -0.784940 0.453242 0.422423 13 173 3 255
-0.053693 0.020745 0.170239 -0.776194 0.501326 0.382354 13 173 3 255
-0.035521 0.033855 0.189938 -0.776194 0.501326 0.382354 13 173 3 255
-0.041491 0.038609 0.171585 -0.776194 0.501326 0.382354 13 173 3 255
-0.039900 0.002094 0.202346 -0.683255 0.282837 0.673176 13 173 3 255
-0.029389 0.021351 0.204923 -0.683255 0.282837 0.673176 13 173 3 255
-0.046959 0.013708 0.190302 -0.683255 0.282837 0.673176 13 173 3 255
-0.054879 -0.006795 0.176897 -0.862051 0.001658 0.506819 13 173 3 255
-0.039900 0.002094 0.202346 -0.862051 0.001658 0.506819 13 173 3 255
-0.046959 0.013708 0.190302 -0.862051 0.001658 0.506819 13 173 3 255
-0.054879 -0.006795 0.176897 -0.926361 0.125746 0.355025 13 173 3 255
-0.046959 0.013708 0.190302 -0.926361 0.125746 0.355025 13 173 3 255
-0.053693 0.020745 0.170239 -0.926361 0.125746 0.355025 13 173 3 255
-0.045287 -0.018127 0.190675 -0.847078 -0.077766 0.525748 13 173 3 255
-0.039900 0.002094 0.202346 -0.847078 -0.077766 0.525748 13 173 3 255
-0.054879 -0.006795 0.176897 -0.847078 -0.077766 0.525748 13 173 3 255
0.018285 0.049417 0.183129 0.090997 0.880048 0.466085 13 173 3 255
-0.001749 0.056584 0.173508 0.090997 0.880048 0.466085 13 173 3 255
0.003010 0.042314 0.199524 0.090997 0.880048 0.466085 13 173 3 255
0.012716 0.001796 0.215632 0.297228 -0.124523 0.946652 13 173 3 255
0.011035 -0.021270 0.213126 0.297228 -0.124523 0.946652 13 173 3 255
0.029059 -0.002448 0.209943 0.297228 -0.124523 0.946652 13 173 3 255
0.029059 -0.002448 0.209943 0.637538 -0.153463 0.754980 13 173 3 255
0.029929 -0.018983 0.205847 0.637538 -0.153463 0.754980 13 173 3 255
0.042048 -0.015748 0.196271 0.637538 -0.153463 0.754980 13 173 3 255
0.042048 -0.015748 0.196271 0.739600 -0.475464 0.476367 13 173 3 255
0.034372 -0.035563 0.188412 0.739600 -0.475464 0.476367 13 173 3 255
0.050817 -0.025233 0.173190 0.739600 -0.475464 0.476367 13 173 3 255
0.050817 -0.025233 0.173190 0.717255 -0.585791 0.377350 13 173 3 255
0.034372 -0.035563 0.188412 0.717255 -0.585791 0.377350 13 173 3 255
0.034437 -0.045251 0.173247 0.717255 -0.585791 0.377350 13 173 3 255
0.042048 -0.015748 0.196271 0.618246 -0.484869 0.618607 13 173 3 255
0.029929 -0.018983 0.205847 0.618246 -0.484869 0.618607 13 173 3 255
0.034372 -0.035563 0.188412 0.618246 -0.484869 0.618607 13 173 3 255
0.029929 -0.018983 0.205847 0.541066 -0.536266 0.647817 13 173 3 255
0.019700 -0.040872 0.196271 0.541066 -0.536266 0.647817 13 173 3 255
0.034372 -0.035563 0.188412 0.541066 -0.536266 0.647817 13 173 3 255
0.029059 -0.002448 0.209943 0.373355 -0.204487 0.904871 13 173 3 255
0.011035 -0.021270 0.213126 0.373355 -0.204487 0.904871 13 173 3 255
0.029929 -0.018983 0.205847 0.373355 -0.204487 0.904871 13 173 3 255
0.029929 -0.018983 0.205847 0.362235 -0.510464 0.779880 13 173 3 255
0.011035 -0.021270 0.213126 0.362235 -0.510464 0.779880 13 173 3 255
0.019700 -0.040872 0.196271 0.362235 -0.510464 0.779880 13 173 3 255
0.034372 -0.035563 0.188412 0.510612 -0.723559 0.464475 13 173 3 255
0.019700 -0.040872 0.196271 0.510612 -0.723559 0.464475 13 173 3 255
0.034437 -0.045251 0.173247 0.510612 -0.723559 0.464475 13 173 3 255
0.019700 -0.040872 0.196271 0.349335 -0.853790 0.386015 13 173 3 255
0.005997 -0.050411 0.187574 0.349335 -0.853790 0.386015 13 173 3 255
0.034437 -0.045251 0.173247 0.349335 -0.853790 0.386015 13 173 3 255
0.034437 -0.045251 0.173247 0.334591 -0.875365 0.348976 13 173 3 255
0.005997 -0.050411 0.187574 0.334591 -0.875365 0.348976 13 173 3 255
0.012564 -0.055992 0.167278 0.334591 -0.875365 0.348976 13 173 3 255
0.011035 -0.021270 0.213126 -0.040748 -0.224229 0.973684 13 173 3 255
-0.004363 0.000073 0.217396 -0.040748 -0.224229 0.973684 13 173 3 255
-0.014388 -0.018250 0.212757 -0.040748 -0.224229 0.973684 13 173 3 255
0.005997 -0.050411 0.187574 0.041538 -0.959857 0.277398 13 173 3 255
-0.010081 -0.055072 0.173852 0.041538 -0.959857 0.277398 13 173 3 255
0.012564 -0.055992 0.167278 0.041538 -0.959857 0.277398 13 173 3 255
0.019700 -0.040872 0.196271 0.110228 -0.751463 0.650502 13 173 3 255
-0.004593 -0.038843 0.202732 0.110228 -0.751463 0.650502 13 173 3 255
0.005997 -0.050411 0.187574 0.110228 -0.751463 0.650502 13 173 3 255
0.005997 -0.050411 0.187574 -0.065019 -0.814657 0.576287 13 173 3 255
-0.004593 -0.038843 0.202732 -0.065019 -0.814657 0.576287 13 173 3 255
-0.016097 -0.045724 0.191706 -0.065019 -0.814657 0.576287 13 173 3 255
0.005997 -0.050411 0.187574 -0.109107 -0.895264 0.431969 13 173 3 255
-0.016097 -0.045724 0.191706 -0.109107 -0.895264 0.431969 13 173 3 255
-0.010081 -0.055072 0.173852 -0.109107 -0.895264 0.431969 13 173 3 255
0.011035 -0.021270 0.213126 0.157650 -0.602834 0.782137 13 173 3 255
-0.004593 -0.038843 0.202732 0.157650 -0.602834 0.782137 13 173 3 255
0.019700 -0.040872 0.196271 0.157650 -0.602834 0.782137 13 173 3 255
0.030214 0.047619 0.172569 0.502202 0.744076 0.440618 13 173 3 255
0.018285 0.049417 0.183129 0.502202 0.744076 0.440618 13 173 3 255
0.037806 0.031678 0.190837 0.502202 0.744076 0.440618 13 173 3 255
0.017824 0.031836 0.205326 0.037490 0.524096 0.850834 13 173 3 255
0.003010 0.042314 0.199524 0.037490 0.524096 0.850834 13 173 3 255
-0.010761 0.022924 0.212075 0.037490 0.524096 0.850834 13 173 3 255
0.017824 0.031836 0.205326 0.086031 0.411269 0.907445 13 173 3 255
-0.010761 0.022924 0.212075 0.086031 0.411269 0.907445 13 173 3 255
0.012975 0.014467 0.213657 0.086031 0.411269 0.907445 13 173 3 255
0.037806 0.031678 0.190837 0.418384 0.707738 0.569264 13 173 3 255
0.018285 0.049417 0.183129 0.418384 0.707738 0.569264 13 173 3 255
0.017824 0.031836 0.205326 0.418384 0.707738 0.569264 13 173 3 255
0.048544 0.029589 0.172036 0.671550 0.673579 0.308726 13 173 3 255
0.030214 0.047619 0.172569 0.671550 0.673579 0.308726 13 173 3 255
0.037806 0.031678 0.190837 0.671550 0.673579 0.308726 13 173 3 255
0.017824 0.031836 0.205326 0.531438 0.432804 0.728185 13 173 3 255
0.033234 0.011947 0.205900 0.531438 0.432804 0.728185 13 173 3 255
0.037806 0.031678 0.190837 0.531438 0.432804 0.728185 13 173 3 255
0.037806 0.031678 0.190837 0.838836 0.314822 0.444118 13 173 3 255
0.050002 0.000751 0.189723 0.838836 0.314822 0.444118 13 173 3 255
0.048544 0.029589 0.172036 0.838836 0.314822 0.444118 13 173 3 255
0.012975 0.014467 0.213657 0.373286 0.314447 0.872800 13 173 3 255
0.033234 0.011947 0.205900 0.373286 0.314447 0.872800 13 173 3 255
0.017824 0.031836 0.205326 0.373286 0.314447 0.872800 13 173 3 255
0.037806 0.031678 0.190837 0.756507 0.277012 0.592420 13 173 3 255
0.033234 0.011947 0.205900 0.756507 0.277012 0.592420 13 173 3 255
0.050002 0.000751 0.189723 0.756507 0.277012 0.592420 13 173 3 255
0.048544 0.029589 0.172036 0.904539 0.255241 0.341558 13 173 3 255
0.050002 0.000751 0.189723 0.904539 0.255241 0.341558 13 173 3 255
0.055805 0.001180 0.174035 0.904539 0.255241 0.341558 13 173 3 255
0.012716 0.001796 0.215632 0.113578 -0.115505 0.986792 13 173 3 255
-0.004363 0.000073 0.217396 0.113578 -0.115505 0.986792 13 173 3 255
0.011035 -0.021270 0.213126 0.113578 -0.115505 0.986792 13 173 3 255
0.012716 0.001796 0.215632 0.360265 0.153881 0.920071 13 173 3 255
0.029059 -0.002448 0.209943 0.360265 0.153881 0.920071 13 173 3 255
0.033234 0.011947 0.205900 0.360265 0.153881 0.920071 13 173 3 255
0.029059 -0.002448 0.209943 0.697767 -0.052901 0.714369 13 173 3 255
0.042048 -0.015748 0.196271 0.697767 -0.052901 0.714369 13 173 3 255
0.050002 0.000751 0.189723 0.697767 -0.052901 0.714369 13 173 3 255
0.050002 0.000751 0.189723 0.867715 -0.247192 0.431238 13 173 3 255
0.042048 -0.015748 0.196271 0.867715 -0.247192 0.431238 13 173 3 255
0.050817 -0.025233 0.173190 0.867715 -0.247192 0.431238 13 173 3 255
0.050002 0.000751 0.189723 0.923320 -0.185139 0.336456 13 173 3 255
0.050817 -0.025233 0.173190 0.923320 -0.185139 0.336456 13 173 3 255
0.055805 0.001180 0.174035 0.923320 -0.185139 0.336456 13 173 3 255
-0.010081 -0.055072 0.173852 -0.393088 -0.862369 0.319064 13 173 3 255
-0.016097 -0.045724 0.191706 -0.393088 -0.862369 0.319064 13 173 3 255
-0.035167 -0.044109 0.172577 -0.393088 -0.862369 0.319064 13 173 3 255
0.011035 -0.021270 0.213126 -0.067761 -0.462592 0.883978 13 173 3 255
-0.014388 -0.018250 0.212757 -0.067761 -0.462592 0.883978 13 173 3 255
-0.004593 -0.038843 0.202732 -0.067761 -0.462592 0.883978 13 173 3 255
-0.016097 -0.045724 0.191706 -0.481234 -0.772380 0.414539 13 173 3 255
-0.033991 -0.034460 0.191921 -0.481234 -0.772380 0.414539 13 173 3 255
-0.035167 -0.044109 0.172577 -0.481234 -0.772380 0.414539 13 173 3 255
-0.004593 -0.038843 0.202732 -0.319339 -0.617682 0.718673 13 173 3 255
-0.028986 -0.026047 0.202890 -0.319339 -0.617682 0.718673 13 173 3 255
-0.016097 -0.045724 0.191706 -0.319339 -0.617682 0.718673 13 173 3 255
-0.016097 -0.045724 0.191706 -0.391763 -0.635048 0.665759 13 173 3 255
-0.028986 -0.026047 0.202890 -0.391763 -0.635048 0.665759 13 173 3 255
-0.033991 -0.034460 0.191921 -0.391763 -0.635048 0.665759 13 173 3 255
-0.004593 -0.038843 0.202732 -0.268499 -0.521887 0.809655 13 173 3 255
-0.014388 -0.018250 0.212757 -0.268499 -0.521887 0.809655 13 173 3 255
-0.028986 -0.026047 0.202890 -0.268499 -0.521887 0.809655 13 173 3 255
-0.035167 -0.044109 0.172577 -0.726164 -0.596577 0.341733 13 173 3 255
-0.033991 -0.034460 0.191921 -0.726164 -0.596577 0.341733 13 173 3 255
-0.048104 -0.028343 0.172610 -0.726164 -0.596577 0.341733 13 173 3 255
-0.033991 -0.034460 0.191921 -0.767049 -0.499824 0.402259 13 173 3 255
-0.045287 -0.018127 0.190675 -0.767049 -0.499824 0.402259 13 173 3 255
-0.048104 -0.028343 0.172610 -0.767049 -0.499824 0.402259 13 173 3 255
-0.048104 -0.028343 0.172610 -0.913798 -0.333441 0.231927 13 173 3 255
-0.054879 -0.006795 0.176897 -0.913798 -0.333441 0.231927 13 173 3 255
-0.054581 -0.018776 0.160847 -0.913798 -0.333441 0.231927 13 173 3 255
-0.016739 0.044811 0.190860 -0.107199 0.863312 0.493154 13 173 3 255
0.003010 0.042314 0.199524 -0.107199 0.863312 0.493154 13 173 3 255
-0.001749 0.056584 0.173508 -0.107199 0.863312 0.493154 13 173 3 255
-0.016739 0.044811 0.190860 -0.243101 0.887265 0.391999 13 173 3 255
-0.001749 0.056584 0.173508 -0.243101 0.887265 0.391999 13 173 3 255
-0.023941 0.051131 0.172088 -0.243101 0.887265 0.391999 13 173 3 255
0.029059 -0.002448 0.209943 0.694522 0.000600 0.719472 13 173 3 255
0.050002 0.000751 0.189723 0.694522 0.000600 0.719472 13 173 3 255
0.033234 0.011947 0.205900 0.694522 0.000600 0.719472 13 173 3 255
0.012716 0.001796 0.215632 0.368934 0.135794 0.919482 13 173 3 255
0.033234 0.011947 0.205900 0.368934 0.135794 0.919482 13 173 3 255
0.012975 0.014467 0.213657 0.368934 0.135794 0.919482 13 173 3 255
-0.054581 -0.018776 0.160847 -0.977712 -0.176550 0.113619 13 173 3 255
-0.054879 -0.006795 0.176897 -0.977712 -0.176550 0.113619 13 173 3 255
-0.057845 0.000133 0.162138 -0.977712 -0.176550 0.113619 13 173 3 255
-0.001749 0.056584 0.173508 -0.245448 0.953820 0.173153 13 173 3 255
-0.011067 0.056434 0.161123 -0.245448 0.953820 0.173153 13 173 3 255
-0.023941 0.051131 0.172088 -0.245448 0.953820 0.173153 13 173 3 255
0.022238 0.053119 0.158084 0.253333 0.950399 0.180455 13 173 3 255
-0.001749 0.056584 0.173508 0.253333 0.950399 0.180455 13 173 3 255
0.018285 0.049417 0.183129 0.253333 0.950399 0.180455 13 173 3 255
0.055805 0.001180 0.174035 0.922037 0.256104 0.290273 13 173 3 255
0.056165 0.016722 0.159180 0.922037 0.256104 0.290273 13 173 3 255
0.048544 0.029589 0.172036 0.922037 0.256104 0.290273 13 173 3 255
0.018285 0.049417 0.183129 0.293943 0.746282 0.597211 13 173 3 255
0.003010 0.042314 0.199524 0.293943 0.746282 0.597211 13 173 3 255
0.017824 0.031836 0.205326 0.293943 0.746282 0.597211 13 173 3 255
0.003010 0.042314 0.199524 -0.013998 0.550312 0.834842 13 173 3 255
-0.014348 0.033855 0.204809 -0.013998 0.550312 0.834842 13 173 3 255
-0.010761 0.022924 0.212075 -0.013998 0.550312 0.834842 13 173 3 255
0.055805 0.001180 0.174035 0.967678 -0.188124 0.167952 13 173 3 255
0.050817 -0.025233 0.173190 0.967678 -0.188124 0.167952 13 173 3 255
0.057780 -0.003238 0.157706 0.967678 -0.188124 0.167952 13 173 3 255
-0.010081 -0.055072 0.173852 -0.246255 -0.966084 0.077720 13 173 3 255
-0.021816 -0.053614 0.154800 -0.246255 -0.966084 0.077720 13 173 3 255
-0.004622 -0.057734 0.158053 -0.246255 -0.966084 0.077720 13 173 3 255
0.022238 0.053119 0.158084 0.305608 0.933764 0.186247 13 173 3 255
0.018285 0.049417 0.183129 0.305608 0.933764 0.186247 13 173 3 255
0.030214 0.047619 0.172569 0.305608 0.933764 0.186247 13 173 3 255
-0.035167 -0.044109 0.172577 -0.401616 -0.898223 0.178604 13 173 3 255
-0.021816 -0.053614 0.154800 -0.401616 -0.898223 0.178604 13 173 3 255
-0.010081 -0.055072 0.173852 -0.401616 -0.898223 0.178604 13 173 3 255
-0.011067 0.056434 0.161123 -0.031444 0.999438 0.011595 13 173 3 255
-0.001749 0.056584 0.173508 -0.031444 0.999438 0.011595 13 173 3 255
0.002851 0.057052 0.145596 -0.031444 0.999438 0.011595 13 173 3 255
0.057780 -0.003238 0.157706 0.958647 -0.283121 0.028940 13 173 3 255
0.050817 -0.025233 0.173190 0.958647 -0.283121 0.028940 13 173 3 255
0.052002 -0.023868 0.147286 0.958647 -0.283121 0.028940 13 173 3 255
-0.055662 -0.007538 0.145241 -0.988761 0.037391 -0.144755 13 173 3 255
-0.057845 0.000133 0.162138 -0.988761 0.037391 -0.144755 13 173 3 255
-0.055223 0.012809 0.147500 -0.988761 0.037391 -0.144755 13 173 3 255
-0.054581 -0.018776 0.160847 -0.984691 -0.166471 -0.051675 13 173 3 255
-0.057845 0.000133 0.162138 -0.984691 -0.166471 -0.051675 13 173 3 255
-0.055662 -0.007538 0.145241 -0.984691 -0.166471 -0.051675 13 173 3 255
-0.037963 0.043774 0.156385 -0.420612 0.906573 -0.034799 13 173 3 255
-0.011067 0.056434 0.161123 -0.420612 0.906573 -0.034799 13 173 3 255
-0.021186 0.050928 0.139992 -0.420612 0.906573 -0.034799 13 173 3 255
0.030236 0.044412 0.134072 0.543245 0.830906 -0.120336 13 173 3 255
0.022238 0.053119 0.158084 0.543245 0.830906 -0.120336 13 173 3 255
0.040446 0.040815 0.155328 0.543245 0.830906 -0.120336 13 173 3 255
0.044793 0.031170 0.138880 0.840634 0.533918 -0.090920 13 173 3 255
0.040446 0.040815 0.155328 0.840634 0.533918 -0.090920 13 173 3 255
0.056165 0.016722 0.159180 0.840634 0.533918 -0.090920 13 173 3 255
-0.004490 -0.051826 0.131447 -0.189267 -0.958371 -0.213785 13 173 3 255
-0.004622 -0.057734 0.158053 -0.189267 -0.958371 -0.213785 13 173 3 255
-0.021816 -0.053614 0.154800 -0.189267 -0.958371 -0.213785 13 173 3 255
-0.054581 -0.018776 0.160847 -0.870633 -0.475513 -0.126038 13 173 3 255
-0.049521 -0.021707 0.136956 -0.870633 -0.475513 -0.126038 13 173 3 255
-0.042102 -0.039508 0.152862 -0.870633 -0.475513 -0.126038 13 173 3 255
-0.049521 -0.021707 0.136956 -0.936430 -0.312247 -0.160002 13 173 3 255
-0.054581 -0.018776 0.160847 -0.936430 -0.312247 -0.160002 13 173 3 255
-0.055662 -0.007538 0.145241 -0.936430 -0.312247 -0.160002 13 173 3 255
-0.036880 0.038372 0.134283 -0.558388 0.799137 -0.222674 13 173 3 255
-0.037963 0.043774 0.156385 -0.558388 0.799137 -0.222674 13 173 3 255
-0.021186 0.050928 0.139992 -0.558388 0.799137 -0.222674 13 173 3 255
-0.057845 0.000133 0.162138 -0.980036 0.198791 -0.003423 13 173 3 255
-0.053693 0.020745 0.170239 -0.980036 0.198791 -0.003423 13 173 3 255
-0.055223 0.012809 0.147500 -0.980036 0.198791 -0.003423 13 173 3 255
-0.053693 0.020745 0.170239 -0.933621 0.353133 -0.060409 13 173 3 255
-0.049353 0.028675 0.149524 -0.933621 0.353133 -0.060409 13 173 3 255
-0.055223 0.012809 0.147500 -0.933621 0.353133 -0.060409 13 173 3 255
-0.049353 0.028675 0.149524 -0.738787 0.645431 -0.193941 13 173 3 255
-0.037963 0.043774 0.156385 -0.738787 0.645431 -0.193941 13 173 3 255
-0.036880 0.038372 0.134283 -0.738787 0.645431 -0.193941 13 173 3 255
-0.050504 -0.001939 0.127933 -0.945835 0.104974 -0.307206 13 173 3 255
-0.055223 0.012809 0.147500 -0.945835 0.104974 -0.307206 13 173 3 255
-0.048998 0.014249 0.128827 -0.945835 0.104974 -0.307206 13 173 3 255
0.014600 -0.048118 0.128355 0.123549 -0.928418 -0.350393 13 173 3 255
0.005714 -0.055745 0.145429 0.123549 -0.928418 -0.350393 13 173 3 255
-0.004490 -0.051826 0.131447 0.123549 -0.928418 -0.350393 13 173 3 255
-0.026713 -0.044269 0.130613 -0.649068 -0.699403 -0.299243 13 173 3 255
-0.042102 -0.039508 0.152862 -0.649068 -0.699403 -0.299243 13 173 3 255
-0.037760 -0.031883 0.125624 -0.649068 -0.699403 -0.299243 13 173 3 255
-0.037760 -0.031883 0.125624 -0.768832 -0.573390 -0.283058 13 173 3 255
-0.042102 -0.039508 0.152862 -0.768832 -0.573390 -0.283058 13 173 3 255
-0.049521 -0.021707 0.136956 -0.768832 -0.573390 -0.283058 13 173 3 255
-0.049521 -0.021707 0.136956 -0.919312 -0.200325 -0.338726 13 173 3 255
-0.055662 -0.007538 0.145241 -0.919312 -0.200325 -0.338726 13 173 3 255
-0.050504 -0.001939 0.127933 -0.919312 -0.200325 -0.338726 13 173 3 255
-0.021186 0.050928 0.139992 -0.210953 0.965819 -0.150640 13 173 3 255
-0.011067 0.056434 0.161123 -0.210953 0.965819 -0.150640 13 173 3 255
0.002851 0.057052 0.145596 -0.210953 0.965819 -0.150640 13 173 3 255
-0.048998 0.014249 0.128827 -0.891581 0.364210 -0.269138 13 173 3 255
-0.055223 0.012809 0.147500 -0.891581 0.364210 -0.269138 13 173 3 255
-0.049353 0.028675 0.149524 -0.891581 0.364210 -0.269138 13 173 3 255
-0.042621 0.025325 0.125798 -0.859535 0.412250 -0.302074 13 173 3 255
-0.048998 0.014249 0.128827 -0.859535 0.412250 -0.302074 13 173 3 255
-0.049353 0.028675 0.149524 -0.859535 0.412250 -0.302074 13 173 3 255
-0.042621 0.025325 0.125798 -0.786171 0.540651 -0.299387 13 173 3 255
-0.049353 0.028675 0.149524 -0.786171 0.540651 -0.299387 13 173 3 255
-0.036880 0.038372 0.134283 -0.786171 0.540651 -0.299387 13 173 3 255
0.022238 0.053119 0.158084 0.170922 0.984271 0.044687 13 173 3 255
0.002851 0.057052 0.145596 0.170922 0.984271 0.044687 13 173 3 255
-0.001749 0.056584 0.173508 0.170922 0.984271 0.044687 13 173 3 255
0.028549 -0.024274 0.104765 0.600927 -0.640477 -0.478201 13 173 3 255
0.041023 -0.029186 0.127018 0.600927 -0.640477 -0.478201 13 173 3 255
0.027312 -0.042986 0.128272 0.600927 -0.640477 -0.478201 13 173 3 255
-0.017218 -0.040507 0.114917 -0.284486 -0.878945 -0.382784 13 173 3 255
-0.004490 -0.051826 0.131447 -0.284486 -0.878945 -0.382784 13 173 3 255
-0.026713 -0.044269 0.130613 -0.284486 -0.878945 -0.382784 13 173 3 255
-0.037760 -0.031883 0.125624 -0.790853 -0.437698 -0.427753 13 173 3 255
-0.049521 -0.021707 0.136956 -0.790853 -0.437698 -0.427753 13 173 3 255
-0.040463 -0.018595 0.117023 -0.790853 -0.437698 -0.427753 13 173 3 255
-0.040463 -0.018595 0.117023 -0.868950 -0.240607 -0.432474 13 173 3 255
-0.049521 -0.021707 0.136956 -0.868950 -0.240607 -0.432474 13 173 3 255
-0.050504 -0.001939 0.127933 -0.868950 -0.240607 -0.432474 13 173 3 255
0.022238 0.053119 0.158084 0.329693 0.917412 -0.222840 13 173 3 255
0.030236 0.044412 0.134072 0.329693 0.917412 -0.222840 13 173 3 255
0.002851 0.057052 0.145596 0.329693 0.917412 -0.222840 13 173 3 255
-0.055223 0.012809 0.147500 -0.961500 0.050715 -0.270085 13 173 3 255
-0.050504 -0.001939 0.127933 -0.961500 0.050715 -0.270085 13 173 3 255
-0.055662 -0.007538 0.145241 -0.961500 0.050715 -0.270085 13 173 3 255
-0.035181 0.009655 0.104277 -0.857660 0.107571 -0.502840 13 173 3 255
-0.050504 -0.001939 0.127933 -0.857660 0.107571 -0.502840 13 173 3 255
-0.048998 0.014249 0.128827 -0.857660 0.107571 -0.502840 13 173 3 255
-0.017339 0.046362 0.125559 -0.158235 0.928490 -0.335959 13 173 3 255
-0.021186 0.050928 0.139992 -0.158235 0.928490 -0.335959 13 173 3 255
0.002851 0.057052 0.145596 -0.158235 0.928490 -0.335959 13 173 3 255
0.044793 0.031170 0.138880 0.695144 0.685025 -0.217980 13 173 3 255
0.030236 0.044412 0.134072 0.695144 0.685025 -0.217980 13 173 3 255
0.040446 0.040815 0.155328 0.695144 0.685025 -0.217980 13 173 3 255
-0.000450 0.051133 0.130247 -0.173665 0.930799 -0.321642 13 173 3 255
-0.017339 0.046362 0.125559 -0.173665 0.930799 -0.321642 13 173 3 255
0.002851 0.057052 0.145596 -0.173665 0.930799 -0.321642 13 173 3 255
-0.042621 0.025325 0.125798 -0.798611 0.320455 -0.509441 13 173 3 255
-0.035181 0.009655 0.104277 -0.798611 0.320455 -0.509441 13 173 3 255
-0.048998 0.014249 0.128827 -0.798611 0.320455 -0.509441 13 173 3 255
0.027312 -0.042986 0.128272 0.325409 -0.813783 -0.481526 13 173 3 255
0.014600 -0.048118 0.128355 0.325409 -0.813783 -0.481526 13 173 3 255
0.007574 -0.034302 0.100257 0.325409 -0.813783 -0.481526 13 173 3 255
0.007574 -0.034302 0.100257 0.097250 -0.883282 -0.458645 13 173 3 255
0.014600 -0.048118 0.128355 0.097250 -0.883282 -0.458645 13 173 3 255
-0.004490 -0.051826 0.131447 0.097250 -0.883282 -0.458645 13 173 3 255
0.007574 -0.034302 0.100257 -0.090604 -0.852863 -0.514213 13 173 3 255
-0.004490 -0.051826 0.131447 -0.090604 -0.852863 -0.514213 13 173 3 255
-0.017218 -0.040507 0.114917 -0.090604 -0.852863 -0.514213 13 173 3 255
-0.017218 -0.040507 0.114917 -0.542246 -0.681533 -0.491409 13 173 3 255
-0.026713 -0.044269 0.130613 -0.542246 -0.681533 -0.491409 13 173 3 255
-0.037760 -0.031883 0.125624 -0.542246 -0.681533 -0.491409 13 173 3 255
-0.017339 0.046362 0.125559 -0.490144 0.784920 -0.379023 13 173 3 255
-0.036880 0.038372 0.134283 -0.490144 0.784920 -0.379023 13 173 3 255
-0.021186 0.050928 0.139992 -0.490144 0.784920 -0.379023 13 173 3 255
0.013812 0.045841 0.123431 0.154087 0.910291 -0.384224 13 173 3 255
-0.000450 0.051133 0.130247 0.154087 0.910291 -0.384224 13 173 3 255
0.002851 0.057052 0.145596 0.154087 0.910291 -0.384224 13 173 3 255
0.013812 0.045841 0.123431 0.284206 0.904805 -0.317105 13 173 3 255
0.002851 0.057052 0.145596 0.284206 0.904805 -0.317105 13 173 3 255
0.030236 0.044412 0.134072 0.284206 0.904805 -0.317105 13 173 3 255
-0.028834 -0.004707 0.092680 -0.849147 0.049380 -0.525844 13 173 3 255
-0.050504 -0.001939 0.127933 -0.849147 0.049380 -0.525844 13 173 3 255
-0.035181 0.009655 0.104277 -0.849147 0.049380 -0.525844 13 173 3 255
-0.026551 0.027217 0.106836 -0.507197 0.714849 -0.481397 13 173 3 255
-0.036880 0.038372 0.134283 -0.507197 0.714849 -0.481397 13 173 3 255
-0.017339 0.046362 0.125559 -0.507197 0.714849 -0.481397 13 173 3 255
0.041023 -0.029186 0.127018 0.767431 -0.382442 -0.514576 13 173 3 255
0.028549 -0.024274 0.104765 0.767431 -0.382442 -0.514576 13 173 3 255
0.045661 -0.012811 0.121766 0.767431 -0.382442 -0.514576 13 173 3 255
-0.050504 -0.001939 0.127933 -0.844457 -0.178283 -0.505082 13 173 3 255
-0.028834 -0.004707 0.092680 -0.844457 -0.178283 -0.505082 13 173 3 255
-0.040463 -0.018595 0.117023 -0.844457 -0.178283 -0.505082 13 173 3 255
0.027312 -0.042986 0.128272 0.454686 -0.708341 -0.539921 13 173 3 255
0.007574 -0.034302 0.100257 0.454686 -0.708341 -0.539921 13 173 3 255
0.028549 -0.024274 0.104765 0.454686 -0.708341 -0.539921 13 173 3 255
0.052002 -0.023868 0.147286 0.970005 -0.208903 -0.124296 13 173 3 255
0.055073 -0.005875 0.141007 0.970005 -0.208903 -0.124296 13 173 3 255
0.057780 -0.003238 0.157706 0.970005 -0.208903 -0.124296 13 173 3 255
0.057780 -0.003238 0.157706 0.980504 0.092169 -0.173539 13 173 3 255
0.055073 -0.005875 0.141007 0.980504 0.092169 -0.173539 13 173 3 255
0.056165 0.016722 0.159180 0.980504 0.092169 -0.173539 13 173 3 255
-0.042621 0.025325 0.125798 -0.640723 0.596400 -0.483508 13 173 3 255
-0.036880 0.038372 0.134283 -0.640723 0.596400 -0.483508 13 173 3 255
-0.026551 0.027217 0.106836 -0.640723 0.596400 -0.483508 13 173 3 255
-0.040463 -0.018595 0.117023 -0.693640 -0.485485 -0.532135 13 173 3 255
-0.024178 -0.021894 0.098807 -0.693640 -0.485485 -0.532135 13 173 3 255
-0.037760 -0.031883 0.125624 -0.693640 -0.485485 -0.532135 13 173 3 255
-0.037760 -0.031883 0.125624 -0.546733 -0.655441 -0.521038 13 173 3 255
-0.024178 -0.021894 0.098807 -0.546733 -0.655441 -0.521038 13 173 3 255
-0.017218 -0.040507 0.114917 -0.546733 -0.655441 -0.521038 13 173 3 255
0.045661 -0.012811 0.121766 0.817972 -0.138410 -0.558358 13 173 3 255
0.024376 -0.003937 0.088384 0.817972 -0.138410 -0.558358 13 173 3 255
0.043587 0.000705 0.115377 0.817972 -0.138410 -0.558358 13 173 3 255
-0.017339 0.046362 0.125559 -0.108100 0.864680 -0.490554 13 173 3 255
-0.000450 0.051133 0.130247 -0.108100 0.864680 -0.490554 13 173 3 255
-0.003742 0.028152 0.090466 -0.108100 0.864680 -0.490554 13 173 3 255
0.056165 0.016722 0.159180 0.901711 0.346563 -0.258478 13 173 3 255
0.048370 0.014012 0.128355 0.901711 0.346563 -0.258478 13 173 3 255
0.044793 0.031170 0.138880 0.901711 0.346563 -0.258478 13 173 3 255
-0.035181 0.009655 0.104277 -0.712227 0.426990 -0.557146 13 173 3 255
-0.042621 0.025325 0.125798 -0.712227 0.426990 -0.557146 13 173 3 255
-0.020264 0.011744 0.086809 -0.712227 0.426990 -0.557146 13 173 3 255
-0.040463 -0.018595 0.117023 -0.718598 -0.397972 -0.570293 13 173 3 255
-0.028834 -0.004707 0.092680 -0.718598 -0.397972 -0.570293 13 173 3 255
-0.024178 -0.021894 0.098807 -0.718598 -0.397972 -0.570293 13 173 3 255
0.045661 -0.012811 0.121766 0.765959 -0.300569 -0.568300 13 173 3 255
0.028549 -0.024274 0.104765 0.765959 -0.300569 -0.568300 13 173 3 255
0.024376 -0.003937 0.088384 0.765959 -0.300569 -0.568300 13 173 3 255
0.043587 0.000705 0.115377 0.795150 0.140075 -0.590014 13 173 3 255
0.024376 -0.003937 0.088384 0.795150 0.140075 -0.590014 13 173 3 255
0.034648 0.019640 0.107825 0.795150 0.140075 -0.590014 13 173 3 255
0.010540 -0.019877 0.086592 0.445996 -0.662169 -0.602179 13 173 3 255
0.028549 -0.024274 0.104765 0.445996 -0.662169 -0.602179 13 173 3 255
0.007574 -0.034302 0.100257 0.445996 -0.662169 -0.602179 13 173 3 255
-0.006843 -0.020975 0.085899 -0.148909 -0.794850 -0.588251 13 173 3 255
0.007574 -0.034302 0.100257 -0.148909 -0.794850 -0.588251 13 173 3 255
-0.017218 -0.040507 0.114917 -0.148909 -0.794850 -0.588251 13 173 3 255
-0.006843 -0.020975 0.085899 -0.414831 -0.679199 -0.605478 13 173 3 255
-0.017218 -0.040507 0.114917 -0.414831 -0.679199 -0.605478 13 173 3 255
-0.024178 -0.021894 0.098807 -0.414831 -0.679199 -0.605478 13 173 3 255
0.030236 0.044412 0.134072 0.679451 0.587169 -0.439976 13 173 3 255
0.044793 0.031170 0.138880 0.679451 0.587169 -0.439976 13 173 3 255
0.034648 0.019640 0.107825 0.679451 0.587169 -0.439976 13 173 3 255
-0.042621 0.025325 0.125798 -0.708413 0.433284 -0.557150 13 173 3 255
-0.026551 0.027217 0.106836 -0.708413 0.433284 -0.557150 13 173 3 255
-0.020264 0.011744 0.086809 -0.708413 0.433284 -0.557150 13 173 3 255
0.015767 0.005775 0.082207 0.722470 0.224464 -0.653952 13 173 3 255
0.034648 0.019640 0.107825 0.722470 0.224464 -0.653952 13 173 3 255
0.024376 -0.003937 0.088384 0.722470 0.224464 -0.653952 13 173 3 255
0.024376 -0.003937 0.088384 0.586275 -0.431800 -0.685441 13 173 3 255
0.028549 -0.024274 0.104765 0.586275 -0.431800 -0.685441 13 173 3 255
0.010540 -0.019877 0.086592 0.586275 -0.431800 -0.685441 13 173 3 255
0.010540 -0.019877 0.086592 0.072399 -0.693720 -0.716597 13 173 3 255
0.007574 -0.034302 0.100257 0.072399 -0.693720 -0.716597 13 173 3 255
-0.006843 -0.020975 0.085899 0.072399 -0.693720 -0.716597 13 173 3 255
-0.003742 0.028152 0.090466 -0.418025 0.729973 -0.540735 13 173 3 255
-0.026551 0.027217 0.106836 -0.418025 0.729973 -0.540735 13 173 3 255
-0.017339 0.046362 0.125559 -0.418025 0.729973 -0.540735 13 173 3 255
0.048370 0.014012 0.128355 0.802138 0.424726 -0.419741 13 173 3 255
0.034648 0.019640 0.107825 0.802138 0.424726 -0.419741 13 173 3 255
0.044793 0.031170 0.138880 0.802138 0.424726 -0.419741 13 173 3 255
0.022083 -0.052943 0.151025 0.191854 -0.978835 -0.071228 13 173 3 255
0.012564 -0.055992 0.167278 0.191854 -0.978835 -0.071228 13 173 3 255
0.005714 -0.055745 0.145429 0.191854 -0.978835 -0.071228 13 173 3 255
0.045661 -0.012811 0.121766 0.899409 -0.272687 -0.341621 13 173 3 255
0.055073 -0.005875 0.141007 0.899409 -0.272687 -0.341621 13 173 3 255
0.052002 -0.023868 0.147286 0.899409 -0.272687 -0.341621 13 173 3 255
-0.004622 -0.057734 0.158053 0.127974 -0.990448 -0.051334 13 173 3 255
0.005714 -0.055745 0.145429 0.127974 -0.990448 -0.051334 13 173 3 255
0.012564 -0.055992 0.167278 0.127974 -0.990448 -0.051334 13 173 3 255
-0.003742 0.028152 0.090466 0.272576 0.663974 -0.696305 13 173 3 255
0.019373 0.025769 0.097243 0.272576 0.663974 -0.696305 13 173 3 255
0.008561 0.014189 0.081967 0.272576 0.663974 -0.696305 13 173 3 255
0.008561 0.014189 0.081967 0.539567 0.441693 -0.716781 13 173 3 255
0.019373 0.025769 0.097243 0.539567 0.441693 -0.716781 13 173 3 255
0.015767 0.005775 0.082207 0.539567 0.441693 -0.716781 13 173 3 255
0.015767 0.005775 0.082207 0.625000 0.394024 -0.673884 13 173 3 255
0.019373 0.025769 0.097243 0.625000 0.394024 -0.673884 13 173 3 255
0.034648 0.019640 0.107825 0.625000 0.394024 -0.673884 13 173 3 255
-0.006843 -0.020975 0.085899 -0.531092 -0.408511 -0.742335 13 173 3 255
-0.024178 -0.021894 0.098807 -0.531092 -0.408511 -0.742335 13 173 3 255
-0.028834 -0.004707 0.092680 -0.531092 -0.408511 -0.742335 13 173 3 255
-0.028834 -0.004707 0.092680 -0.759221 0.171472 -0.627838 13 173 3 255
-0.035181 0.009655 0.104277 -0.759221 0.171472 -0.627838 13 173 3 255
-0.020264 0.011744 0.086809 -0.759221 0.171472 -0.627838 13 173 3 255
-0.020264 0.011744 0.086809 -0.475001 0.617930 -0.626528 13 173 3 255
-0.026551 0.027217 0.106836 -0.475001 0.617930 -0.626528 13 173 3 255
-0.003742 0.028152 0.090466 -0.475001 0.617930 -0.626528 13 173 3 255
0.043587 0.000705 0.115377 0.916450 0.056861 -0.396089 13 173 3 255
0.048370 0.014012 0.128355 0.916450 0.056861 -0.396089 13 173 3 255
0.055073 -0.005875 0.141007 0.916450 0.056861 -0.396089 13 173 3 255
-0.004490 -0.051826 0.131447 -0.077083 -0.973229 -0.216527 13 173 3 255
0.005714 -0.055745 0.145429 -0.077083 -0.973229 -0.216527 13 173 3 255
-0.004622 -0.057734 0.158053 -0.077083 -0.973229 -0.216527 13 173 3 255
0.027312 -0.042986 0.128272 0.664218 -0.686739 -0.295302 13 173 3 255
0.041023 -0.029186 0.127018 0.664218 -0.686739 -0.295302 13 173 3 255
0.039147 -0.042233 0.153142 0.664218 -0.686739 -0.295302 13 173 3 255
0.027312 -0.042986 0.128272 0.537625 -0.810839 -0.231298 13 173 3 255
0.039147 -0.042233 0.153142 0.537625 -0.810839 -0.231298 13 173 3 255
0.022083 -0.052943 0.151025 0.537625 -0.810839 -0.231298 13 173 3 255
-0.026713 -0.044269 0.130613 -0.298197 -0.909120 -0.290827 13 173 3 255
-0.004490 -0.051826 0.131447 -0.298197 -0.909120 -0.290827 13 173 3 255
-0.021816 -0.053614 0.154800 -0.298197 -0.909120 -0.290827 13 173 3 255
0.039147 -0.042233 0.153142 0.754268 -0.607426 -0.249226 13 173 3 255
0.041023 -0.029186 0.127018 0.754268 -0.607426 -0.249226 13 173 3 255
0.052002 -0.023868 0.147286 0.754268 -0.607426 -0.249226 13 173 3 255
0.055073 -0.005875 0.141007 0.905059 -0.060122 -0.421016 13 173 3 255
0.045661 -0.012811 0.121766 0.905059 -0.060122 -0.421016 13 173 3 255
0.043587 0.000705 0.115377 0.905059 -0.060122 -0.421016 13 173 3 255
-0.003742 0.028152 0.090466 0.078556 0.860400 -0.503528 13 173 3 255
-0.000450 0.051133 0.130247 0.078556 0.860400 -0.503528 13 173 3 255
0.013812 0.045841 0.123431 0.078556 0.860400 -0.503528 13 173 3 255
0.048370 0.014012 0.128355 0.953723 0.159095 -0.255149 13 173 3 255
0.056165 0.016722 0.159180 0.953723 0.159095 -0.255149 13 173 3 255
0.055073 -0.005875 0.141007 0.953723 0.159095 -0.255149 13 173 3 255
0.048370 0.014012 0.128355 0.839338 0.193669 -0.507941 13 173 3 255
0.043587 0.000705 0.115377 0.839338 0.193669 -0.507941 13 173 3 255
0.034648 0.019640 0.107825 0.839338 0.193669 -0.507941 13 173 3 255
0.022083 -0.052943 0.151025 0.254406 -0.925391 -0.280942 13 173 3 255
0.005714 -0.055745 0.145429 0.254406 -0.925391 -0.280942 13 173 3 255
0.014600 -0.048118 0.128355 0.254406 -0.925391 -0.280942 13 173 3 255
0.034648 0.019640 0.107825 0.596632 0.631265 -0.495515 13 173 3 255
0.019373 0.025769 0.097243 0.596632 0.631265 -0.495515 13 173 3 255
0.030236 0.044412 0.134072 0.596632 0.631265 -0.495515 13 173 3 255
-0.021816 -0.053614 0.154800 -0.545761 -0.812852 -0.203510 13 173 3 255
-0.042102 -0.039508 0.152862 -0.545761 -0.812852 -0.203510 13 173 3 255
-0.026713 -0.044269 0.130613 -0.545761 -0.812852 -0.203510 13 173 3 255
0.022083 -0.052943 0.151025 0.354790 -0.883726 -0.305209 13 173 3 255
0.014600 -0.048118 0.128355 0.354790 -0.883726 -0.305209 13 173 3 255
0.027312 -0.042986 0.128272 0.354790 -0.883726 -0.305209 13 173 3 255
0.052002 -0.023868 0.147286 0.856372 -0.361003 -0.369193 13 173 3 255
0.041023 -0.029186 0.127018 0.856372 -0.361003 -0.369193 13 173 3 255
0.045661 -0.012811 0.121766 0.856372 -0.361003 -0.369193 13 173 3 255
0.013812 0.045841 0.123431 0.393999 0.767979 -0.504949 13 173 3 255
0.030236 0.044412 0.134072 0.393999 0.767979 -0.504949 13 173 3 255
0.019373 0.025769 0.097243 0.393999 0.767979 -0.504949 13 173 3 255
0.013812 0.045841 0.123431 0.244982 0.793923 -0.556480 13 173 3 255
0.019373 0.025769 0.097243 0.244982 0.793923 -0.556480 13 173 3 255
-0.003742 0.028152 0.090466 0.244982 0.793923 -0.556480 13 173 3 255
-0.028834 -0.004707 0.092680 -0.587297 0.017187 -0.809189 13 173 3 255
-0.020264 0.011744 0.086809 -0.587297 0.017187 -0.809189 13 173 3 255
-0.008549 -0.000736 0.078041 -0.587297 0.017187 -0.809189 13 173 3 255
-0.028834 -0.004707 0.092680 -0.502351 -0.349403 -0.790924 13 173 3 255
-0.008549 -0.000736 0.078041 -0.502351 -0.349403 -0.790924 13 173 3 255
-0.006843 -0.020975 0.085899 -0.502351 -0.349403 -0.790924 13 173 3 255
-0.006843 -0.020975 0.085899 0.066913 -0.522790 -0.849831 13 173 3 255
0.002515 -0.008629 0.079041 0.066913 -0.522790 -0.849831 13 173 3 255
0.010540 -0.019877 0.086592 0.066913 -0.522790 -0.849831 13 173 3 255
0.010540 -0.019877 0.086592 0.427096 -0.273806 -0.861754 13 173 3 255
0.002515 -0.008629 0.079041 0.427096 -0.273806 -0.861754 13 173 3 255
0.024376 -0.003937 0.088384 0.427096 -0.273806 -0.861754 13 173 3 255
-0.003742 0.028152 0.090466 -0.153121 0.411839 -0.898300 13 173 3 255
0.008561 0.014189 0.081967 -0.153121 0.411839 -0.898300 13 173 3 255
-0.008549 -0.000736 0.078041 -0.153121 0.411839 -0.898300 13 173 3 255
-0.003742 0.028152 0.090466 -0.217658 0.415973 -0.882945 13 173 3 255
-0.008549 -0.000736 0.078041 -0.217658 0.415973 -0.882945 13 173 3 255
-0.020264 0.011744 0.086809 -0.217658 0.415973 -0.882945 13 173 3 255
-0.006843 -0.020975 0.085899 -0.181004 -0.369158 -0.911570 13 173 3 255
-0.008549 -0.000736 0.078041 -0.181004 -0.369158 -0.911570 13 173 3 255
0.002515 -0.008629 0.079041 -0.181004 -0.369158 -0.911570 13 173 3 255
0.024376 -0.003937 0.088384 0.420231 -0.191649 -0.886948 13 173 3 255
0.002515 -0.008629 0.079041 0.420231 -0.191649 -0.886948 13 173 3 255
0.015767 0.005775 0.082207 0.420231 -0.191649 -0.886948 13 173 3 255
0.008561 0.014189 0.081967 0.143383 0.094783 -0.985118 13 173 3 255
0.015767 0.005775 0.082207 0.143383 0.094783 -0.985118 13 173 3 255
-0.008549 -0.000736 0.078041 0.143383 0.094783 -0.985118 13 173 3 255
-0.021816 -0.053614 0.154800 -0.571478 -0.820562 0.009501 13 173 3 255
-0.035167 -0.044109 0.172577 -0.571478 -0.820562 0.009501 13 173 3 255
-0.042102 -0.039508 0.152862 -0.571478 -0.820562 0.009501 13 173 3 255
-0.042102 -0.039508 0.152862 -0.767075 -0.629685 0.122850 13 173 3 255
-0.035167 -0.044109 0.172577 -0.767075 -0.629685 0.122850 13 173 3 255
-0.048104 -0.028343 0.172610 -0.767075 -0.629685 0.122850 13 173 3 255
-0.042102 -0.039508 0.152862 -0.849304 -0.526426 0.039478 13 173 3 255
-0.048104 -0.028343 0.172610 -0.849304 -0.526426 0.039478 13 173 3 255
-0.054581 -0.018776 0.160847 -0.849304 -0.526426 0.039478 13 173 3 255
-0.028986 -0.026047 0.202890 -0.654104 -0.239784 0.717392 13 173 3 255
-0.039900 0.002094 0.202346 -0.654104 -0.239784 0.717392 13 173 3 255
-0.045287 -0.018127 0.190675 -0.654104 -0.239784 0.717392 13 173 3 255
-0.048104 -0.028343 0.172610 -0.879467 -0.342300 0.330710 13 173 3 255
-0.045287 -0.018127 0.190675 -0.879467 -0.342300 0.330710 13 173 3 255
-0.054879 -0.006795 0.176897 -0.879467 -0.342300 0.330710 13 173 3 255
-0.057845 0.000133 0.162138 -0.965409 0.099828 0.240873 13 173 3 255
-0.054879 -0.006795 0.176897 -0.965409 0.099828 0.240873 13 173 3 255
-0.053693 0.020745 0.170239 -0.965409 0.099828 0.240873 13 173 3 255
-0.049353 0.028675 0.149524 -0.808917 0.585380 0.054622 13 173 3 255
-0.053693 0.020745 0.170239 -0.808917 0.585380 0.054622 13 173 3 255
-0.037963 0.043774 0.156385 -0.808917 0.585380 0.054622 13 173 3 255
-0.037963 0.043774 0.156385 -0.825768 0.564009 -0.000038 13 173 3 255
-0.053693 0.020745 0.170239 -0.825768 0.564009 -0.000038 13 173 3 255
-0.041491 0.038609 0.171585 -0.825768 0.564009 -0.000038 13 173 3 255
-0.037963 0.043774 0.156385 -0.577805 0.804225 0.139153 13 173 3 255
-0.041491 0.038609 0.171585 -0.577805 0.804225 0.139153 13 173 3 255
-0.023941 0.051131 0.172088 -0.577805 0.804225 0.139153 13 173 3 255
-0.023941 0.051131 0.172088 -0.417826 0.907045 -0.051875 13 173 3 255
-0.011067 0.056434 0.161123 -0.417826 0.907045 -0.051875 13 173 3 255
-0.037963 0.043774 0.156385 -0.417826 0.907045 -0.051875 13 173 3 255
0.022238 0.053119 0.158084 0.560478 0.828149 0.005795 13 173 3 255
0.030214 0.047619 0.172569 0.560478 0.828149 0.005795 13 173 3 255
0.040446 0.040815 0.155328 0.560478 0.828149 0.005795 13 173 3 255
0.040446 0.040815 0.155328 0.696785 0.704357 0.135541 13 173 3 255
0.030214 0.047619 0.172569 0.696785 0.704357 0.135541 13 173 3 255
0.048544 0.029589 0.172036 0.696785 0.704357 0.135541 13 173 3 255
0.040446 0.040815 0.155328 0.839891 0.541003 -0.043576 13 173 3 255
0.048544 0.029589 0.172036 0.839891 0.541003 -0.043576 13 173 3 255
0.056165 0.016722 0.159180 0.839891 0.541003 -0.043576 13 173 3 255
0.057780 -0.003238 0.157706 0.992282 0.072906 0.100302 13 173 3 255
0.056165 0.016722 0.159180 0.992282 0.072906 0.100302 13 173 3 255
0.055805 0.001180 0.174035 0.992282 0.072906 0.100302 13 173 3 255
0.052002 -0.023868 0.147286 0.820331 -0.571841 0.007403 13 173 3 255
0.050817 -0.025233 0.173190 0.820331 -0.571841 0.007403 13 173 3 255
0.039147 -0.042233 0.153142 0.820331 -0.571841 0.007403 13 173 3 255
0.039147 -0.042233 0.153142 0.771195 -0.630767 0.085971 13 173 3 255
0.050817 -0.025233 0.173190 0.771195 -0.630767 0.085971 13 173 3 255
0.034437 -0.045251 0.173247 0.771195 -0.630767 0.085971 13 173 3 255
0.039147 -0.042233 0.153142 0.531847 -0.846836 -0.002539 13 173 3 255
0.034437 -0.045251 0.173247 0.531847 -0.846836 -0.002539 13 173 3 255
0.022083 -0.052943 0.151025 0.531847 -0.846836 -0.002539 13 173 3 255
0.022083 -0.052943 0.151025 0.422213 -0.903143 0.077900 13 173 3 255
0.034437 -0.045251 0.173247 0.422213 -0.903143 0.077900 13 173 3 255
0.012564 -0.055992 0.167278 0.422213 -0.903143 0.077900 13 173 3 255
-0.004622 -0.057734 0.158053 0.009086 -0.985536 0.169220 13 173 3 255
0.012564 -0.055992 0.167278 0.009086 -0.985536 0.169220 13 173 3 255
-0.010081 -0.055072 0.173852 0.009086 -0.985536 0.169220 13 173 3 255
3 0 1 2
3 3 4 5
3 6 7 8
3 9 10 11
3 12 13 14
3 15 16 17
3 18 19 20
3 21 22 23
3 24 25 26
3 27 28 29
3 30 31 32
3 33 34 35
3 36 37 38
3 39 40 41
3 42 43 44
3 45 46 47
3 48 49 50
3 51 52 53
3 54 55 56
3 57 58 59
3 60 61 62
3 63 64 65
3 66 67 68
3 69 70 71
3 72 73 74
3 75 76 77
3 78 79 80
3 81 82 83
3 84 85 86
3 87 88 89
3 90 91 92
3 93 94 95
3 96 97 98
3 99 100 101
3 102 103 104
3 105 106 107
3 108 109 110
3 111 112 113
3 114 115 116
3 117 118 119
3 120 121 122
3 123 124 125
3 126 127 128
3 129 130 131
3 132 133 134
3 135 136 137
3 138 139 140
3 141 142 143
3 144 145 146
3 147 148 149
3 150 151 152
3 153 154 155
3 156 157 158
3 159 160 161
3 162 163 164
3 165 166 167
3 168 169 170
3 171 172 173
3 174 175 176
3 177 178 179
3 180 181 182
3 183 184 185
3 186 187 188
3 189 190 191
3 192 193 194
3 195 196 197
3 198 199 200
3 201 202 203
3 204 205 206
3 207 208 209
3 210 211 212
3 213 214 215
3 216 217 218
3 219 220 221
3 222 223 224
3 225 226 227
3 228 229 230
3 231 232 233
3 234 235 236
3 237 238 239
3 240 241 242
3 243 244 245
3 246 247 248
3 249 250 251
3 252 253 254
3 255 256 257
3 258 259 260
3 261 262 263
3 264 265 266
3 267 268 269
3 270 271 272
3 273 274 275
3 276 277 278
3 279 280 281
3 282 283 284
3 285 286 287
3 288 289 290
3 291 292 293
3 294 295 296
3 297 298 299
3 300 301 302
3 303 304 305
3 306 307 308
3 309 310 311
3 312 313 314
3 315 316 317
3 318 319 320
3 321 322 323
3 324 325 326
3 327 328 329
3 330 331 332
3 333 334 335
3 336 337 338
3 339 340 341
3 342 343 344
3 345 346 347
3 348 349 350
3 351 352 353
3 354 355 356
3 357 358 359
3 360 361 362
3 363 364 365
3 366 367 368
3 369 370 371
3 372 373 374
3 375 376 377
3 378 379 380
3 381 382 383
3 384 385 386
3 387 388 389
3 390 391 392
3 393 394 395
3 396 397 398
3 399 400 401
3 402 403 404
3 405 406 407
3 408 409 410
3 411 412 413
3 414 415 416
3 417 418 419
3 420 421 422
3 423 424 425
3 426 427 428
3 429 430 431
3 432 433 434
3 435 436 437
3 438 439 440
3 441 442 443
3 444 445 446
3 447 448 449
3 450 451 452
3 453 454 455
3 456 457 458
3 459 460 461
3 462 463 464
3 465 466 467
3 468 469 470
3 471 472 473
3 474 475 476
3 477 478 479
3 480 481 482
3 483 484 485
3 486 487 488
3 489 490 491
3 492 493 494
3 495 496 497
3 498 499 500
3 501 502 503
3 504 505 506
3 507 508 509
3 510 511 512
3 513 514 515
3 516 517 518
3 519 520 521
3 522 523 524
3 525 526 527
3 528 529 530
3 531 532 533
3 534 535 536
3 537 538 539
3 540 541 542
3 543 544 545
3 546 547 548
3 549 550 551
3 552 553 554
3 555 556 557
3 558 559 560
3 561 562 563
3 564 565 566
3 567 568 569
3 570 571 572
3 573 574 575
3 576 577 578
3 579 580 581
3 582 583 584
3 585 586 587
3 588 589 590
3 591 592 593
3 594 595 596
3 597 598 599
