ply
format ascii 1.0
comment VCGLIB generated
element vertex 103
property float x
property float y
property float z
property uchar red
property uchar green
property uchar blue
property uchar alpha
property float texture_u
property float texture_v
element face 200
property list uchar int vertex_indices
end_header
-0.01106658 0.05643447 0.1611235 3 48 190 255 0.516727 0.642370
-0.05458057 -0.01877632 0.1608467 3 48 190 255 0.516727 0.976069
0.05616489 0.01672224 0.15918 3 48 190 255 0.539561 0.003009
0.005714477 -0.0557446 0.1454289 3 48 190 255 0.539561 0.444823
-0.004363405 7.286039e-05 0.2173965 3 48 190 255 0.991554 0.515252
-0.02421141 -0.004103591 0.212397 3 48 190 255 0.962424 0.688512
-0.02898636 -0.02604733 0.2028904 3 48 190 255 0.888735 0.824144
0.003009595 0.0423136 0.1995244 3 48 190 255 0.852483 0.488260
-0.04528729 -0.01812718 0.1906748 3 48 190 255 0.778049 0.902501
-0.01076084 0.02292428 0.2120746 3 48 190 255 0.915215 0.627317
-0.01434794 0.03385474 0.2048093 3 48 190 255 0.867295 0.661151
-0.01673881 0.04481075 0.1908601 3 48 190 255 0.852483 0.666739
-0.0293891 0.02135051 0.2049233 3 48 190 255 0.932118 0.744627
-0.03552145 0.03385474 0.1899375 3 48 190 255 0.852483 0.785087
-0.0469586 0.01370796 0.1903018 3 48 190 255 0.757581 0.935388
-0.03990016 0.002094103 0.2023455 3 48 190 255 0.821626 0.908605
-0.05487896 -0.006794631 0.1768971 3 48 190 255 0.800410 0.920610
0.02905935 -0.002447678 0.2099427 3 48 190 255 0.925827 0.217006
0.0299292 -0.01898329 0.205847 3 48 190 255 0.888735 0.216737
0.04204807 -0.01574817 0.1962709 3 48 190 255 0.852483 0.191477
0.03437171 -0.03556333 0.1884115 3 48 190 255 0.757581 0.183037
0.03443722 -0.04525141 0.1732474 3 48 190 255 0.709623 0.303221
0.01969971 -0.04087178 0.1962714 3 48 190 255 0.800410 0.390904
0.005997025 -0.05041056 0.1875741 3 48 190 255 0.709623 0.388347
-0.01008114 -0.05507193 0.1738523 3 48 190 255 0.709623 0.434108
0.01828492 0.04941719 0.1831293 3 48 190 255 0.852483 0.306261
0.01297496 0.01446741 0.2136571 3 48 190 255 0.980161 0.423301
0.01782438 0.031836 0.2053256 3 48 190 255 0.932118 0.315695
0.0378056 0.03167763 0.1908372 3 48 190 255 0.852483 0.156519
0.04854381 0.02958922 0.1720356 3 48 190 255 0.709623 0.066105
0.03323442 0.011947 0.2059004 3 48 190 255 0.925827 0.267594
0.01271595 0.001796025 0.2156324 3 48 190 255 0.968550 0.324204
0.05580524 0.001180296 0.1740349 3 48 190 255 0.673368 0.019398
0.01103547 -0.02127003 0.2131259 3 48 190 255 0.945856 0.481296
-0.01609661 -0.04572432 0.191706 3 48 190 255 0.867295 0.652846
-0.03399116 -0.03445962 0.1919211 3 48 190 255 0.821626 0.741701
-0.004593496 -0.03884263 0.202732 3 48 190 255 0.925827 0.605800
-0.01438819 -0.0182501 0.2127574 3 48 190 255 0.968550 0.588560
-0.04810423 -0.0283427 0.1726101 3 48 190 255 0.693472 0.918456
0.05000235 0.000751071 0.1897233 3 48 190 255 0.794161 0.074602
-0.02394106 0.05113099 0.1720881 3 48 190 255 0.656034 0.716746
-0.04149133 0.03860881 0.1715851 3 48 190 255 0.656034 0.870230
-0.05369255 0.02074486 0.1702386 3 48 190 255 0.639091 0.896939
-0.001748601 0.05658395 0.1735085 3 48 190 255 0.639091 0.449959
-0.03796283 0.04377387 0.1563854 3 48 190 255 0.619125 0.744358
0.03021404 0.04761929 0.172569 3 48 190 255 0.639091 0.305670
0.05081702 -0.02523281 0.1731897 3 48 190 255 0.639091 0.040485
0.01256369 -0.05599203 0.1672777 3 48 190 255 0.619125 0.389107
0.04044593 0.04081516 0.1553278 3 48 190 255 0.576657 0.098884
-0.03516711 -0.04410902 0.1725769 3 48 190 255 0.639091 0.694317
-0.05784513 0.0001331995 0.1621376 3 48 190 255 0.539561 0.999713
-0.05522277 0.0128094 0.1474997 3 48 190 255 0.539561 0.995559
0.02223765 0.05311893 0.1580844 3 48 190 255 0.516727 0.289914
-0.02181552 -0.05361353 0.1548004 3 48 190 255 0.516727 0.778835
-0.0493529 0.02867457 0.1495239 3 48 190 255 0.492903 0.949260
-0.04210178 -0.03950766 0.1528617 3 48 190 255 0.482878 0.864264
-0.02671314 -0.04426942 0.1306126 3 48 190 255 0.463491 0.693314
-0.05566158 -0.007537785 0.1452412 3 48 190 255 0.454342 0.974801
-0.04952117 -0.02170733 0.1369559 3 48 190 255 0.427102 0.903864
0.0146001 -0.04811819 0.1283547 3 48 190 255 0.349414 0.429501
0.002851029 0.05705248 0.1455959 3 48 190 255 0.482878 0.428433
-0.02118647 0.05092811 0.1399915 3 48 190 255 0.427102 0.740985
-0.05050449 -0.001938744 0.1279334 3 48 190 255 0.330755 0.920783
-0.04899822 0.01424869 0.1288272 3 48 190 255 0.320945 0.907250
0.04102264 -0.02918602 0.1270183 3 48 190 255 0.320945 0.176733
-0.04046256 -0.01859531 0.1170235 3 48 190 255 0.320945 0.882907
-0.04262123 0.02532477 0.1257977 3 48 190 255 0.342345 0.869357
-0.00045009 0.05113275 0.1302472 3 48 190 255 0.408001 0.438948
-0.03688028 0.03837166 0.1342832 3 48 190 255 0.320945 0.762693
0.05778035 -0.00323763 0.1577065 3 48 190 255 0.516727 0.003782
0.04358676 0.0007053379 0.1153766 3 48 190 255 0.277307 0.118343
-0.03776012 -0.03188291 0.1256236 3 48 190 255 0.265971 0.786576
-0.0241785 -0.02189419 0.09880685 3 48 190 255 0.208729 0.704155
0.007573726 -0.03430178 0.1002565 3 48 190 255 0.208729 0.527404
-0.02655094 0.02721674 0.1068358 3 48 190 255 0.272449 0.800547
-0.03518055 0.009654777 0.1042766 3 48 190 255 0.191592 0.812308
0.04479291 0.03117013 0.1388799 3 48 190 255 0.427102 0.074541
-0.01733871 0.04636176 0.1255592 3 48 190 255 0.286230 0.658507
-0.01721764 -0.04050744 0.1149173 3 48 190 255 0.191592 0.554231
0.03914738 -0.04223297 0.1531416 3 48 190 255 0.539561 0.128450
0.02854936 -0.0242743 0.1047654 3 48 190 255 0.121711 0.269335
0.05507267 -0.005874505 0.1410075 3 48 190 255 0.408001 0.039430
0.01381184 0.04584142 0.1234307 3 48 190 255 0.314582 0.309274
-0.02026359 0.01174405 0.0868087 3 48 190 255 0.113413 0.692532
0.0456611 -0.01281121 0.121766 3 48 190 255 0.408001 0.063331
-0.004622267 -0.05773446 0.1580526 3 48 190 255 0.516727 0.473937
0.0220834 -0.05294349 0.1510252 3 48 190 255 0.482878 0.339695
-0.006842948 -0.02097489 0.08589851 3 48 190 255 0.075251 0.568814
0.02437577 -0.003937263 0.08838412 3 48 190 255 0.069150 0.346503
-0.02883426 -0.004707377 0.09267974 3 48 190 255 0.069150 0.656675
0.05200201 -0.02386824 0.147286 3 48 190 255 0.408001 0.124999
0.04837026 0.01401228 0.1283547 3 48 190 255 0.320945 0.103434
0.02731195 -0.04298626 0.1282722 3 48 190 255 0.427102 0.220740
0.03464792 0.01963964 0.1078251 3 48 190 255 0.310615 0.110211
-0.004490069 -0.05182556 0.1314467 3 48 190 255 0.482878 0.571523
0.01054048 -0.01987666 0.08659162 3 48 190 255 0.040688 0.434177
0.0302364 0.04441177 0.134072 3 48 190 255 0.265971 0.269222
0.01937338 0.02576948 0.09724273 3 48 190 255 0.208729 0.380111
-0.003742144 0.02815249 0.09046626 3 48 190 255 0.102222 0.538849
-0.008548711 -0.0007361458 0.07804115 3 48 190 255 0.025046 0.613016
0.008560836 0.01418924 0.08196748 3 48 190 255 0.025046 0.442674
0.002515469 -0.008629172 0.07904065 3 48 190 255 0.020916 0.504294
0.01576679 0.005774729 0.0822067 3 48 190 255 0.006154 0.461104
3 4 26 9 
3 4 9 5 
3 37 5 6 
3 4 5 37 
3 15 6 5 
3 12 5 9 
3 35 6 8 
3 11 10 7 
3 12 9 10 
3 13 10 11 
3 13 11 40 
3 12 10 13 
3 41 13 40 
3 15 5 12 
3 14 12 13 
3 14 13 42 
3 42 13 41 
3 15 12 14 
3 16 15 14 
3 16 14 42 
3 8 15 16 
3 25 43 7 
3 31 33 17 
3 17 18 19 
3 19 20 46 
3 46 20 21 
3 19 18 20 
3 18 22 20 
3 17 33 18 
3 18 33 22 
3 20 22 21 
3 22 23 21 
3 21 23 47 
3 33 4 37 
3 23 24 47 
3 22 36 23 
3 23 36 34 
3 23 34 24 
3 33 36 22 
3 45 25 28 
3 27 7 9 
3 27 9 26 
3 28 25 27 
3 29 45 28 
3 27 30 28 
3 28 39 29 
3 26 30 27 
3 28 30 39 
3 29 39 32 
3 31 4 33 
3 31 17 30 
3 17 19 39 
3 39 19 46 
3 39 46 32 
3 24 34 49 
3 33 37 36 
3 34 35 49 
3 36 6 34 
3 34 6 35 
3 36 37 6 
3 49 35 38 
3 35 8 38 
3 38 16 1 
3 11 7 43 
3 11 43 40 
3 17 39 30 
3 31 30 26 
3 1 16 50 
3 43 0 40 
3 52 43 25 
3 32 2 29 
3 25 7 27 
3 7 10 9 
3 32 46 69 
3 24 53 85 
3 52 25 45 
3 49 53 24 
3 0 43 60 
3 69 46 90 
3 57 50 51 
3 1 50 57 
3 61 44 0 
3 96 52 48 
3 76 48 2 
3 94 85 53 
3 1 58 55 
3 58 1 57 
3 68 44 61 
3 50 42 51 
3 42 54 51 
3 54 44 68 
3 62 51 63 
3 59 3 94 
3 56 55 71 
3 71 55 58 
3 58 57 62 
3 60 61 0 
3 63 51 54 
3 66 63 54 
3 66 54 68 
3 52 60 43 
3 80 64 92 
3 78 94 56 
3 71 58 65 
3 65 58 62 
3 52 96 60 
3 51 62 57 
3 75 62 63 
3 77 61 60 
3 76 96 48 
3 67 77 60 
3 66 75 63 
3 92 59 73 
3 73 59 94 
3 73 94 78 
3 78 56 71 
3 77 68 61 
3 82 67 60 
3 82 60 96 
3 89 62 75 
3 74 68 77 
3 64 80 84 
3 62 89 65 
3 92 73 80 
3 90 81 69 
3 69 81 2 
3 66 68 74 
3 65 72 71 
3 71 72 78 
3 84 88 70 
3 77 67 98 
3 2 91 76 
3 75 66 83 
3 65 89 72 
3 84 80 88 
3 70 88 93 
3 95 80 73 
3 87 73 78 
3 87 78 72 
3 96 76 93 
3 66 74 83 
3 102 93 88 
3 88 80 95 
3 95 73 87 
3 98 74 77 
3 91 93 76 
3 86 47 3 
3 84 81 90 
3 85 3 47 
3 98 97 100 
3 100 97 102 
3 102 97 93 
3 87 72 89 
3 89 75 83 
3 83 74 98 
3 70 91 81 
3 94 3 85 
3 92 64 79 
3 92 79 86 
3 56 94 53 
3 79 64 90 
3 81 84 70 
3 98 67 82 
3 91 2 81 
3 91 70 93 
3 86 3 59 
3 93 97 96 
3 53 55 56 
3 86 59 92 
3 90 64 84 
3 82 96 97 
3 82 97 98 
3 89 83 99 
3 89 99 87 
3 87 101 95 
3 95 101 88 
3 98 100 99 
3 98 99 83 
3 87 99 101 
3 88 101 102 
3 100 102 99 
3 53 49 55 
3 55 49 38 
3 55 38 1 
3 6 15 8 
3 38 8 16 
3 50 16 42 
3 54 42 44 
3 44 42 41 
3 44 41 40 
3 44 40 0 
3 52 45 48 
3 48 45 29 
3 48 29 2 
3 69 2 32 
3 90 46 79 
3 79 46 21 
3 79 21 86 
3 86 21 47 
3 85 47 24 
