ply
format ascii 1.0
comment VCGLIB generated
element vertex 50
property float x
property float y
property float z
property uchar red
property uchar green
property uchar blue
property uchar alpha
property float texture_u
property float texture_v
element face 100
property list uchar int vertex_indices
end_header
0.01752078 0.03841238 0.08595642 229 234 237 255 0.265398 0.761836
0.005412459 -0.04602381 0.08604487 229 234 237 255 0.525664 0.149375
-0.03835177 -0.01667198 0.08602457 229 234 237 255 0.714867 0.221742
-0.0379092 0.02617648 0.08604287 229 234 237 255 0.823609 0.651469
0.01297066 0.06323395 0.02287836 229 234 237 255 0.477141 0.863227
0.06385884 -0.008557361 0.02182614 229 234 237 255 0.147445 0.409469
0.02420911 -0.05989962 0.01897693 229 234 237 255 0.387539 0.153883
-0.01714093 -0.0428641 0.07385221 229 234 237 255 0.695578 0.192523
-0.0594289 0.02360003 0.02185811 229 234 237 255 0.861391 0.546789
-0.01760763 0.04292822 0.07266619 229 234 237 255 0.608664 0.840375
0.04181584 -0.009878598 0.08597399 229 234 237 255 0.148055 0.472758
0.03456592 -0.0359963 0.06282043 229 234 237 255 0.158953 0.217648
0.04663516 0.04471603 0.0008058455 229 234 237 255 0.158953 0.782352
-0.0348538 0.05230735 0.02600227 229 234 237 255 0.814953 0.845336
-0.0439156 0.0346656 0.04192343 229 234 237 255 0.834219 0.773453
-0.03255513 0.0393702 0.05698193 229 234 237 255 0.792711 0.762328
-0.03831283 -0.04661277 0.03111202 229 234 237 255 0.766625 0.174680
-0.04084718 -0.03303218 0.0468297 229 234 237 255 0.825320 0.233375
0.06110922 0.02092812 0.01882587 229 234 237 255 0.026266 0.621641
0.03364324 0.03589316 0.06602247 229 234 237 255 0.071531 0.735563
-0.008704207 -0.05967028 0.03546623 229 234 237 255 0.413383 0.008773
0.02003788 -0.0582354 -5.556606e-05 229 234 237 255 0.456422 0.001906
0.01970636 0.05774819 -6.242401e-05 229 234 237 255 0.328992 0.969844
-0.03206661 0.05317568 -1.767866e-05 229 234 237 255 0.750000 0.933016
-0.04971214 0.03908651 -2.813407e-05 229 234 237 255 0.788820 0.908016
-0.06495091 -0.01502311 0.0171079 229 234 237 255 0.898641 0.198961
-0.04348114 -0.04782665 4.892854e-08 229 234 237 255 0.750000 0.066984
0.03244435 -0.03661793 2.640567e-05 229 234 237 255 0.183273 0.218492
0.03282034 0.03917967 4.72884e-05 229 234 237 255 0.171266 0.797164
0.06084095 0.002878086 0.006365091 229 234 237 255 0.017578 0.628062
0.04681589 -0.04450531 0.002624464 229 234 237 255 0.141047 0.151930
-0.05360469 -0.02991617 -3.696253e-06 229 234 237 255 0.980914 0.363172
-0.00764728 0.0549758 0.008842632 229 234 237 255 0.554641 0.921875
0.05502398 0.02999544 -1.584638e-05 229 234 237 255 0.190859 0.745484
0.04580533 0.007214444 0.02199876 229 234 237 255 0.133352 0.560969
0.05457672 -0.03087994 -4.966347e-05 229 234 237 255 0.155563 0.240711
-0.01570968 -0.06070464 -1.391643e-05 229 234 237 255 0.743383 0.108555
-0.04673027 0.007102536 -7.636726e-10 229 234 237 255 0.906695 0.629297
-0.06351677 0.008783659 -1.338963e-05 229 234 237 255 0.940906 0.365594
-0.02127637 0.05493791 0.022 229 234 237 255 0.590133 0.922766
0.02059306 0.05535379 0.022 229 234 237 255 0.413492 0.921875
0.03287223 0.03190678 0.022 229 234 237 255 0.251383 0.823430
0.05571241 0.02092532 0.022 229 234 237 255 0.093305 0.629297
0.05085021 -0.03162177 0.02199997 229 234 237 255 0.190859 0.254516
0.02876753 -0.05287293 0.022 229 234 237 255 0.359812 0.060898
-0.03038942 -0.05299592 0.022 229 234 237 255 0.528469 0.039945
-0.03320424 -0.03225647 0.0218956 229 234 237 255 0.745484 0.190859
-0.05948592 -0.008400901 0.022 229 234 237 255 0.863969 0.574609
-0.05545137 0.02106411 0.022 229 234 237 255 0.869234 0.601656
-0.03379305 0.03213745 0.02191096 229 234 237 255 0.745484 0.809141
3 10 0 2 
3 2 1 10 
3 2 0 3 
3 7 1 2 
3 9 3 0 
3 8 25 2 
3 20 6 1 
3 10 18 19 
3 10 19 0 
3 11 10 1 
3 11 1 6 
3 3 14 8 
3 8 2 3 
3 0 4 9 
3 20 1 7 
3 7 17 16 
3 25 16 17 
3 17 7 2 
3 8 14 13 
3 15 3 9 
3 15 14 3 
3 4 19 12 
3 0 19 4 
3 25 17 2 
3 10 5 18 
3 9 13 15 
3 14 15 13 
3 46 17 16 
3 46 16 17 
3 32 23 4 
3 6 30 11 
3 5 10 11 
3 19 18 12 
3 4 13 9 
3 16 20 7 
3 20 21 6 
3 30 6 21 
3 30 5 11 
3 5 30 35 
3 22 4 12 
3 13 4 23 
3 23 24 13 
3 13 24 8 
3 16 25 26 
3 16 26 36 
3 16 36 20 
3 20 36 21 
3 12 18 33 
3 33 18 29 
3 29 18 5 
3 5 35 29 
3 26 25 31 
3 25 38 31 
3 8 24 38 
3 38 25 8 
3 12 33 28 
3 12 28 22 
3 12 28 33 
3 33 28 12 
3 33 29 34 
3 30 27 35 
3 21 27 30 
3 26 46 36 
3 26 31 46 
3 24 37 38 
3 23 49 24 
3 22 28 40 
3 41 28 33 
3 42 33 34 
3 29 35 43 
3 43 35 27 
3 43 27 44 
3 44 27 21 
3 21 36 44 
3 44 36 45 
3 45 36 46 
3 31 38 47 
3 47 38 37 
3 47 37 48 
3 48 37 24 
3 23 39 49 
3 32 39 23 
3 40 32 22 
3 32 4 22 
3 39 32 40 
3 34 29 43 
3 34 41 42 
3 44 45 34 
3 34 45 46 
3 34 46 47 
3 43 44 34 
3 39 41 34 
3 24 49 48 
3 48 49 34 
3 34 49 39 
3 41 39 40 
3 47 48 34 
3 46 31 47 
3 42 41 33 
3 40 28 41 
