ply
format ascii 1.0
comment VCGLIB generated
element vertex 55
property float x
property float y
property float z
property uchar red
property uchar green
property uchar blue
property uchar alpha
property float texture_u
property float texture_v
element face 100
property list uchar int vertex_indices
end_header
0.03737015 0.01811256 -0.02781286 128 128 128 255 0.734280 0.139404
-0.04167192 -0.06632155 0.01717315 64 64 64 255 0.090362 0.527465
0.05783478 -0.0661961 0.00753389 64 64 64 255 0.090362 0.806636
0.02010447 -0.066439 -0.04040003 64 64 64 255 0.090362 0.060899
0.035378 0.039204 0.02711 128 128 128 255 0.923226 0.728384
0.037819 0.037775 0.023572 128 128 128 255 0.910739 0.692646
-0.04503887 -0.009797879 0.05400514 128 128 128 255 0.656291 1.000000
0.0461906 -0.009973167 0.05400101 128 128 128 255 0.416961 1.000000
0.03248043 0.03169427 0.05397397 128 128 128 255 0.884297 1.000000
-0.03913428 0.02278585 0.05400212 128 128 128 255 0.822562 1.000000
0.036777 0.038486 0.025331 128 128 128 255 0.916952 0.710414
-0.002543181 -0.05198198 0.05395894 128 128 128 255 0.184857 0.924273
0.03206035 -0.03454594 0.03510916 128 128 128 255 0.249397 0.807202
-0.03306383 -0.03456219 0.03236766 128 128 128 255 0.353259 0.652333
0.03766602 0.03330306 0.02471932 128 128 128 255 0.786456 0.723061
0.04500019 -0.056296 2.773613e-06 128 128 128 255 0.090440 0.665636
-0.0114894 -0.05493057 0.04331648 128 128 128 255 0.090440 0.890838
-0.006041891 0.044316 0.0539947 128 128 128 255 0.976949 0.889424
-0.03600851 0.03628404 0.01805612 128 128 128 255 0.932130 0.760616
-0.02934488 -0.06613833 -0.03382564 128 128 128 255 0.741139 0.211727
-0.04055246 0.02202388 -0.02036529 128 128 128 255 0.770657 0.296566
-0.01948724 0.01216498 -0.04021166 128 128 128 255 0.686237 0.053939
0.001298655 0.04783009 0.04352844 128 128 128 255 0.977552 0.889384
0.01064507 0.01064061 -0.04338036 128 128 128 255 0.667468 0.000000
0.03673854 -0.01393743 -0.02718804 128 128 128 255 0.737801 0.202131
-0.04485408 -0.0561663 -0.003620453 128 128 128 255 0.090440 0.417970
-0.002012017 -0.0663869 -0.04449388 128 128 128 255 0.090440 0.003313
0.04508871 0.02971145 -0.001321689 128 128 128 255 0.090440 0.345768
0.04461765 -0.01015974 0.01203332 128 128 128 255 0.090440 0.527465
-0.04586104 0.00715627 -0.0004441868 128 128 128 255 0.090440 0.598485
0.03058031 0.01672741 -0.0314496 202 209 238 255 0.069174 0.693191
-0.008410463 0.04927867 0.04194183 202 209 238 255 0.974128 0.517943
0.042586 0.03599 0.012927 202 209 238 255 0.646514 0.966533
0.04204312 0.035536 0.01462688 202 209 238 255 0.653877 0.964203
0.042586 0.035989 0.012927 202 209 238 255 0.646514 0.966533
0.042586 0.035988 0.012927 202 209 238 255 0.646514 0.966533
0.01402762 0.04633557 -0.01604325 202 209 238 255 0.369005 0.656119
0.03810789 0.01887619 -0.02637124 202 209 238 255 0.111234 0.795340
-0.0407075 0.02114037 -0.02104468 202 209 238 255 0.043182 0.327296
-0.02159797 0.05091397 0.0184858 202 209 238 255 0.448191 0.343848
-0.03644107 0.04607996 -0.02000768 202 209 238 255 0.234405 0.246227
0.03789868 0.04536923 -0.02036704 202 209 238 255 0.242043 0.778975
0.0236918 0.0519797 0.03432417 202 209 238 255 0.955236 0.555311
-0.03466811 0.04158517 0.02423806 202 209 238 255 0.564151 0.046315
-0.003880238 0.01293915 -0.04522038 202 209 238 255 0.000000 0.499544
-0.006909305 0.05270909 0.05039472 202 209 238 255 0.800073 0.100995
-0.04602109 0.02912487 -0.0005185383 202 209 238 255 0.357300 0.026884
0.04081271 0.03804945 0.01003475 202 209 238 255 0.665791 0.867088
0.04045721 0.05203326 -0.01039789 202 209 238 255 0.469238 0.985404
0.03305506 0.05529854 0.02592155 202 209 238 255 0.826691 0.849613
0.03297857 0.04297714 0.03118168 202 209 238 255 0.777377 0.898038
0.02476246 0.04924754 -0.03443908 202 209 238 255 0.207654 0.803308
-0.001641987 0.0398882 -0.04254812 202 209 238 255 0.058975 0.692125
-0.04161008 0.05439253 0.01464848 202 209 238 255 0.288236 0.068297
-0.02454947 0.04359014 -0.03740864 202 209 238 255 0.268651 0.083959
3 27 20 22 
3 23 27 0 
3 21 20 27 
3 21 27 23 
3 22 20 18 
3 14 27 22 
3 1 2 16 
3 1 3 2 
3 1 26 3 
3 19 26 1 
3 14 4 5 
3 11 7 17 
3 9 6 17 
3 17 6 11 
3 17 7 8 
3 15 2 3 
3 25 19 1 
3 16 2 15 
3 5 10 4 
3 14 5 4 
3 16 11 13 
3 11 12 7 
3 28 7 12 
3 6 29 13 
3 13 11 6 
3 22 17 8 
3 7 28 14 
3 7 14 8 
3 8 14 22 
3 18 29 9 
3 9 29 6 
3 18 9 17 
3 21 19 20 
3 21 23 26 
3 22 18 17 
3 18 20 29 
3 0 3 23 
3 25 20 19 
3 19 21 26 
3 26 23 3 
3 3 24 15 
3 15 24 0 
3 15 0 27 
3 15 28 12 
3 15 12 16 
3 16 12 11 
3 1 16 13 
3 25 1 29 
3 27 14 28 
3 27 28 15 
3 1 13 29 
3 3 0 24 
3 29 20 25 
3 44 50 30 
3 50 38 31 
3 45 46 50 
3 35 32 33 
3 44 37 50 
3 46 38 50 
3 42 39 36 
3 33 32 34 
3 50 33 34 
3 50 34 33 
3 34 35 33 
3 30 52 44 
3 36 39 40 
3 42 36 41 
3 47 42 41 
3 31 43 39 
3 52 41 36 
3 36 40 52 
3 52 30 41 
3 31 39 42 
3 30 47 41 
3 42 47 50 
3 38 40 43 
3 38 44 40 
3 44 52 40 
3 42 50 31 
3 47 30 50 
3 43 31 38 
3 40 39 43 
3 51 37 44 
3 51 44 52 
3 48 50 37 
3 38 54 44 
3 46 45 53 
3 52 54 51 
3 47 49 48 
3 46 54 38 
3 49 47 48 
3 48 37 51 
3 49 45 50 
3 53 54 46 
3 54 52 44 
3 53 45 49 
3 48 49 50 
3 51 54 53 
3 48 51 53 
3 48 53 49 
