ply
format ascii 1.0
comment VCGLIB generated
element vertex 91
property float x
property float y
property float z
property uchar red
property uchar green
property uchar blue
property uchar alpha
property float texture_u
property float texture_v
element face 199
property list uchar int vertex_indices
end_header
0.201936 0.01915701 0.1767999 202 209 238 255 0.909680 0.229719
0.2665171 0.0395364 0.1387656 202 209 238 255 0.545523 0.014112
0.2769491 0.02672724 0.1342906 202 209 238 255 0.049468 0.374150
0.2242854 -0.04307678 0.156726 202 209 238 255 0.905680 0.776392
0.2336602 0.04141617 0.1512205 202 209 238 255 0.833297 0.164060
0.2638811 -0.03564763 0.1655084 202 209 238 255 0.493175 0.670110
0.2073892 -0.02587359 0.1687698 202 209 238 255 0.889887 0.739814
0.2497983 0.03910652 0.1696098 202 209 238 255 0.253308 0.206781
0.2570335 -0.04328831 0.144134 202 209 238 255 0.321262 0.966885
0.2855903 0.00797724 0.1592656 202 209 238 255 0.000659 0.481805
0.2685189 0.03700254 0.1664193 202 209 238 255 0.506396 0.001308
0.1954841 -0.0001882308 0.1695469 202 209 238 255 0.992516 0.422696
0.2801448 -0.02308159 0.1340189 202 209 238 255 0.134776 0.819729
0.2183251 0.03709924 0.1734778 202 209 238 255 0.853420 0.159004
0.2636274 -0.03935207 0.1659466 202 209 238 255 0.332802 0.941056
0.2824088 -0.01554604 0.1691381 202 209 238 255 0.063228 0.637709
0.2188361 -0.04203344 0.1750445 202 209 238 255 0.570954 0.593867
0.2101685 -0.03264596 0.1631675 128 128 128 255 0.710302 0.069172
0.2127716 0.02164662 0.05424462 64 64 64 255 0.090362 0.908727
0.2131937 -0.03785268 0.05400587 64 64 64 255 0.090362 0.755970
0.2493652 -0.04493616 0.05395001 64 64 64 255 0.090362 0.491121
0.2806827 -0.02211056 0.05658961 64 64 64 255 0.090362 0.211606
0.2567258 0.04193572 0.05390906 64 64 64 255 0.090362 0.080465
0.214038 -0.035378 0.159604 128 128 128 255 0.923226 0.728384
0.217576 -0.037819 0.158175 128 128 128 255 0.910739 0.692646
0.1876084 -0.03318632 0.08615902 128 128 128 255 0.416961 1.000000
0.1873735 -0.01874175 0.1696756 128 128 128 255 0.955033 1.000000
0.1871355 0.0466604 0.1170312 128 128 128 255 0.490746 1.000000
0.215817 -0.036777 0.158886 128 128 128 255 0.916952 0.710414
0.1871673 0.006284237 0.07391397 128 128 128 255 0.182183 0.926020
0.2068508 0.03016986 0.08444887 128 128 128 255 0.245753 0.885020
0.1949357 -0.0001966028 0.06851988 128 128 128 255 0.170814 0.909576
0.2381976 -0.04505013 0.1065828 128 128 128 255 0.469801 0.580606
0.188462 -0.04587215 0.1297419 128 128 128 255 0.786456 0.723061
0.1895617 0.03057558 0.156323 128 128 128 255 0.927324 0.894859
0.2862729 0.00735064 0.05393643 128 128 128 255 0.667686 0.000616
0.2800796 0.02407305 0.1165985 128 128 128 255 0.668272 0.002323
0.2845404 -0.01222128 0.1319866 128 128 128 255 0.670622 0.009061
0.2692565 0.03533124 0.1392939 128 128 128 255 0.090440 0.153121
0.2707317 -0.03608885 0.1093193 128 128 128 255 0.090440 0.243303
0.250047 0.04634209 0.1178935 128 128 128 255 0.090440 0.598485
0.1893175 -0.0435071 0.1153166 202 209 238 255 0.000000 0.434539
0.1893178 0.01968773 0.1583654 202 209 238 255 0.000000 0.565628
0.1892938 0.02488094 0.08804686 202 209 238 255 0.000000 0.126788
0.04605369 -0.01415627 0.08620071 202 209 238 255 1.000000 0.200467
0.04948816 0.02671881 0.09845961 202 209 238 255 1.000000 0.327099
0.1792404 -0.03871434 0.1049808 202 209 238 255 0.067255 0.565628
0.1787813 -0.005384619 0.07521814 202 209 238 255 0.067255 0.126788
0.04211573 -0.01925919 0.1459774 202 209 238 255 0.942935 0.560160
0.04496268 0.01937747 0.1487872 202 209 238 255 0.942935 0.799700
0.1793783 0.03931633 0.1106282 202 209 238 255 0.067255 0.736789
0.1793165 0.009946482 0.1625692 202 209 238 255 0.067255 0.968206
0.05326479 0.03536293 0.1203566 202 209 238 255 0.936141 0.545880
0.05198796 0.0268704 0.09022379 202 209 238 255 0.936141 0.131077
0.1779709 -0.03973087 0.1549814 229 234 237 255 0.077446 0.445408
0.1778599 0.04503333 0.1488492 229 234 237 255 0.084069 0.991010
0.1700483 -0.03155724 0.1078123 229 234 237 255 0.096318 0.176129
0.1776738 0.03286117 0.08475957 229 234 237 255 0.101467 0.199822
0.05425183 -0.01008636 0.1512834 229 234 237 255 0.914253 0.820048
0.05134598 -0.03614305 0.1309378 229 234 237 255 0.918947 0.408101
0.1632878 0.004155232 0.1532545 229 234 237 255 0.163438 0.809268
0.1610081 0.03208137 0.1285451 229 234 237 255 0.175177 0.628405
0.06246342 -0.003212977 0.08511753 229 234 237 255 0.201175 0.138923
0.1671041 0.01999256 0.09175728 229 234 237 255 0.201175 0.182486
0.09851802 0.03071239 0.1030196 229 234 237 255 0.201175 0.264355
0.05227568 0.02647105 0.1485084 229 234 237 255 0.870639 0.861244
0.1643494 -0.01573315 0.09022693 229 234 237 255 0.870639 0.205923
0.1627416 -0.02953414 0.1391284 229 234 237 255 0.870639 0.817681
0.05182594 -0.02506964 0.09812006 229 234 237 255 0.886236 0.333222
-0.00936976 0.03695954 0.1735223 202 209 238 255 0.757110 0.096116
-0.04183268 -0.005030351 0.1254527 202 209 238 255 0.091639 0.759161
0.02930013 0.02419732 0.1567513 202 209 238 255 0.784374 0.108581
-0.03457927 0.02105745 0.1784481 202 209 238 255 0.131032 0.302774
-0.034462 -0.02243137 0.1726487 202 209 238 255 0.544865 0.955548
0.03352016 -0.01874619 0.1586084 202 209 238 255 0.926477 0.701703
0.03349671 0.009250744 0.1770036 202 209 238 255 0.976826 0.500000
0.005408634 -0.03737612 0.1744264 202 209 238 255 0.452581 0.981445
-0.00992409 -0.04049098 0.1394934 202 209 238 255 0.492026 0.987006
-0.01272948 0.03844866 0.1382636 202 209 238 255 0.353548 0.024568
0.04226963 -0.008170041 0.1620445 192 192 192 255 1.000000 0.976034
0.04233659 -0.03653115 0.1297393 192 192 192 255 0.921687 0.556812
0.04250441 0.01474821 0.07796364 192 192 192 255 0.921687 0.058642
-0.02559011 0.0310876 0.07712461 192 192 192 255 0.217060 0.000000
0.04156724 0.03753136 0.1385018 192 192 192 255 0.789771 0.795016
0.001123449 0.0375045 0.1445127 192 192 192 255 0.243952 0.705186
-0.03910352 0.01247597 0.1262108 192 192 192 255 0.082699 0.633104
0.00303635 0.03631181 0.07836314 192 192 192 255 0.687446 0.375721
-0.02021606 -0.03523551 0.07771036 192 192 192 255 0.601904 0.027540
0.03896541 -0.02324344 0.07824493 192 192 192 255 0.896663 0.044823
-0.02090096 -0.03565755 0.1346637 192 192 192 255 0.026843 0.027540
-0.04128403 0.0006518312 0.07755339 192 192 192 255 0.034120 0.027540
3 12 15 2 
3 12 3 5 
3 12 2 4 
3 13 11 0 
3 11 13 4 
3 12 8 3 
3 1 12 4 
3 1 9 12 
3 3 8 16 
3 6 13 5 
3 5 15 12 
3 5 13 7 
3 4 7 13 
3 5 10 15 
3 1 4 13 
3 11 4 13 
3 3 6 5 
3 10 7 2 
3 4 2 7 
3 3 11 6 
3 11 13 6 
3 10 5 7 
3 9 15 12 
3 11 3 16 
3 10 9 1 
3 1 13 10 
3 2 15 10 
3 8 12 14 
3 9 10 15 
3 15 14 12 
3 16 8 14 
3 15 10 0 
3 15 16 14 
3 0 10 13 
3 15 0 16 
3 0 11 16 
3 12 15 2 
3 12 3 5 
3 12 2 4 
3 13 11 0 
3 11 13 4 
3 12 8 3 
3 1 12 4 
3 1 9 12 
3 3 8 16 
3 6 13 5 
3 5 15 12 
3 5 13 7 
3 4 7 13 
3 5 10 15 
3 1 4 13 
3 11 4 13 
3 3 6 5 
3 10 7 2 
3 4 2 7 
3 3 11 6 
3 11 13 6 
3 10 5 7 
3 9 15 12 
3 11 3 16 
3 10 9 1 
3 1 13 10 
3 2 15 10 
3 8 12 14 
3 9 10 15 
3 15 14 12 
3 16 8 14 
3 15 10 0 
3 15 16 14 
3 0 10 13 
3 15 0 16 
3 0 11 16 
3 38 26 17 
3 17 37 36 
3 36 38 17 
3 38 40 34 
3 38 34 26 
3 39 17 33 
3 17 39 37 
3 35 18 22 
3 35 19 18 
3 35 20 19 
3 21 20 35 
3 17 23 24 
3 29 25 26 
3 34 27 26 
3 25 33 26 
3 26 27 29 
3 32 19 20 
3 32 20 21 
3 36 35 22 
3 31 18 19 
3 31 19 32 
3 24 28 23 
3 17 24 23 
3 31 29 30 
3 25 32 33 
3 31 25 29 
3 27 40 30 
3 27 30 29 
3 27 34 40 
3 37 35 36 
3 21 37 39 
3 36 22 40 
3 36 40 38 
3 35 37 21 
3 21 39 32 
3 32 39 33 
3 32 25 31 
3 18 31 30 
3 18 30 40 
3 22 18 40 
3 17 26 33 
3 41 43 42 
3 49 44 48 
3 49 45 44 
3 47 43 41 
3 47 41 46 
3 46 41 51 
3 51 41 42 
3 51 42 50 
3 50 42 43 
3 50 43 47 
3 48 59 49 
3 44 59 48 
3 50 47 51 
3 51 47 46 
3 59 52 49 
3 49 52 45 
3 45 59 44 
3 54 47 55 
3 55 47 57 
3 56 47 54 
3 53 59 52 
3 52 59 45 
3 58 52 59 
3 68 59 53 
3 65 52 58 
3 66 47 56 
3 62 68 53 
3 47 66 63 
3 57 47 63 
3 57 61 55 
3 55 60 54 
3 67 54 60 
3 60 55 61 
3 66 56 68 
3 63 66 62 
3 57 63 64 
3 61 57 64 
3 60 61 65 
3 58 67 60 
3 54 67 56 
3 56 67 59 
3 60 65 58 
3 61 52 65 
3 56 59 68 
3 68 62 66 
3 62 53 64 
3 62 64 63 
3 64 53 52 
3 52 61 64 
3 58 59 67 
3 72 75 69 
3 69 78 72 
3 78 69 71 
3 75 71 69 
3 75 73 76 
3 75 72 73 
3 75 76 74 
3 73 72 70 
3 70 72 78 
3 75 74 71 
3 70 77 73 
3 73 77 76 
3 76 77 74 
3 70 78 71 
3 74 77 70 
3 74 70 71 
3 81 83 79 
3 81 80 88 
3 81 79 80 
3 80 87 88 
3 90 88 87 
3 81 88 90 
3 90 86 81 
3 90 82 86 
3 89 87 80 
3 79 83 84 
3 80 79 89 
3 79 84 89 
3 84 85 89 
3 86 84 83 
3 86 83 81 
3 86 82 84 
3 82 85 84 
3 82 90 85 
3 87 89 90 
3 85 90 89 
