ply
format ascii 1.0
comment VCGLIB generated
element vertex 107
property float x
property float y
property float z
property uchar red
property uchar green
property uchar blue
property uchar alpha
property float texture_u
property float texture_v
element face 200
property list uchar int vertex_indices
end_header
0.1672749 -0.0235498 0.0447902 229 234 237 255 0.952273 0.090079
0.1673488 0.01085604 0.05285902 229 234 237 255 0.952273 0.121492
0.1672851 0.0273645 0.006183663 229 234 237 255 0.952273 0.445794
0.03543795 0.02453429 0.004725525 229 234 237 255 0.042424 0.898429
0.03536483 -0.01199715 -0.005826163 229 234 237 255 0.042424 0.919270
0.1672866 -0.03031311 0.01454528 229 234 237 255 0.950780 0.758984
0.1673599 -0.007062653 -0.005566095 229 234 237 255 0.952015 0.957000
0.03536054 -0.03307106 0.0230385 229 234 237 255 0.042424 0.654508
0.03540644 0.00967021 0.05206349 229 234 237 255 0.042424 0.095492
0.1571354 -0.02697713 0.03506073 229 234 237 255 0.950758 0.273000
0.1571856 0.02193061 0.004414676 229 234 237 255 0.950758 0.904508
0.1619017 7.810927e-05 0.05149839 229 234 237 255 0.944750 0.012540
0.03536953 0.03047772 0.03632348 229 234 237 255 0.072083 0.500000
0.04779339 0.02560801 0.03478745 229 234 237 255 0.076682 0.199857
0.03543269 0.01243603 -0.005510965 229 234 237 255 0.072083 0.961841
0.1575631 0.008359484 -0.004500523 229 234 237 255 0.938833 0.998778
0.1574406 -0.02859569 0.01771476 229 234 237 255 0.927917 0.712302
0.04938991 0.02537144 0.01459022 229 234 237 255 0.090803 0.702778
0.05186554 0.009152842 0.05095237 229 234 237 255 0.107780 0.075270
0.03818263 -0.01098656 0.04877105 229 234 237 255 0.117583 0.106476
0.1600242 0.02764451 0.02505933 229 234 237 255 0.117583 0.598841
0.04940592 0.007057307 -0.00216823 229 234 237 255 0.117583 0.909651
0.04824587 -0.00426791 -0.005162493 229 234 237 255 0.117583 0.910571
0.04997942 -0.02241814 0.008841138 229 234 237 255 0.117583 0.692349
0.05046462 -0.02485608 0.03465649 229 234 237 255 0.882417 0.188270
0.1574186 -0.01772259 0.04712686 229 234 237 255 0.882417 0.089429
0.135826 0.02173701 0.04112123 229 234 237 255 0.882417 0.307651
0.1041756 0.02102985 0.005590302 229 234 237 255 0.882417 0.871159
0.1523487 -0.003637546 -0.003009186 229 234 237 255 0.882417 0.927841
0.04981593 -0.02677245 0.02082439 229 234 237 255 0.882417 0.646587
0.1586422 -0.01543468 -0.0001896095 229 234 237 255 0.901356 0.819460
0.1576204 0.0253876 0.03881578 229 234 237 255 0.892220 0.222778
0.2205004 0.03585523 0.07490044 128 128 128 255 0.196627 0.000000
0.185855 -0.02633404 0.07478305 128 128 128 255 0.783535 0.000000
0.1835775 0.020196 0.07479112 128 128 128 255 0.771481 0.000000
0.15786 0.02023703 0.0461932 128 128 128 255 1.000000 0.300272
0.15786 -0.0109601 0.05210214 128 128 128 255 1.000000 0.268875
0.15786 -0.0009911285 -0.006469117 128 128 128 255 1.000000 0.922558
0.1579892 0.02907284 0.01058977 128 128 128 255 1.000000 0.781427
0.1838911 0.01918327 0.06633531 128 128 128 255 0.728389 0.102605
0.1782794 -0.01248962 0.06628202 128 128 128 255 0.763514 0.102605
0.2128637 -0.03490436 0.06633496 128 128 128 255 0.377784 0.102605
0.2320108 -0.03004951 0.07476547 128 128 128 255 0.323135 0.102605
0.2446437 -0.0135035 0.066334 128 128 128 255 0.047297 0.102605
0.2485329 0.003708894 0.07482436 128 128 128 255 0.029297 0.102605
0.2109586 0.03620269 0.06648474 128 128 128 255 0.405405 0.102605
0.16736 0.00571 -0.004121 128 128 128 255 0.897297 0.967112
0.1578128 -0.02600867 0.01444359 128 128 128 255 0.897297 0.533834
0.1673389 -0.01255501 0.04948886 128 128 128 255 0.897297 0.289176
0.1672984 0.01713094 0.05030674 128 128 128 255 0.897297 0.454561
0.2295054 -0.03435389 0.06760126 192 192 192 255 0.184735 0.103599
0.2430946 0.01811775 0.06640349 192 192 192 255 0.590724 0.104375
0.24936 0.01312697 0.06884762 192 192 192 255 0.047254 0.108668
0.1673384 0.02795047 0.01523794 192 192 192 255 0.893881 0.441003
0.171862 -0.03014011 0.01615304 192 192 192 255 0.891892 0.781014
0.1818764 0.0187003 -0.00155399 192 192 192 255 0.893881 0.956841
0.1775132 0.03086001 0.01458768 128 128 128 255 0.860595 0.797664
0.1905793 -0.02651351 0.007737543 128 128 128 255 0.666476 0.750200
0.2014655 0.0004625107 -0.001622894 128 128 128 255 0.608595 0.909316
0.1742062 -0.005830022 -0.007392476 128 128 128 255 0.806865 0.931023
0.1680376 -0.01466792 -0.001780908 128 128 128 255 0.809103 0.908843
0.1731021 0.02773008 0.04140086 128 128 128 255 0.764551 0.303558
0.2198151 -0.009798774 0.01020982 128 128 128 255 0.281157 0.601829
0.2122828 0.01984179 0.01026325 128 128 128 255 0.576022 0.856564
0.2125481 0.03830367 0.04542722 128 128 128 255 0.366616 0.174371
0.1863418 0.02895021 0.05058274 128 128 128 255 0.762941 0.139070
0.2327931 0.03102296 0.04815282 128 128 128 255 0.149157 0.337974
0.2431349 0.01197886 0.03661466 128 128 128 255 0.124886 0.454452
0.1863182 -0.02809583 0.05773997 128 128 128 255 0.692076 0.139119
0.2141402 -0.03774825 0.04915075 128 128 128 255 0.337957 0.250649
0.2493464 -0.007147589 0.04751968 128 128 128 255 0.084573 0.440858
0.2403489 -0.02588169 0.0453285 128 128 128 255 0.267189 0.445345
0.174383 -0.001782111 0.05908931 128 128 128 255 0.800357 0.196915
-0.04457941 0.01545149 0.04288803 85 220 255 255 0.763895 0.275004
-0.04277864 0.00190779 -0.006478992 85 220 255 255 0.271167 0.505923
-0.04220098 -0.02417948 0.01182368 85 220 255 255 0.130702 0.792431
-0.03696728 0.03241057 0.03348878 85 220 255 255 0.943923 0.351702
-0.04540262 -0.01518605 0.04303329 85 220 255 255 0.096525 0.270864
-0.03624999 -0.006481329 0.05680116 85 220 255 255 0.566282 0.005635
-0.02815926 -0.01457402 -0.004157298 85 220 255 255 0.060982 0.731845
-0.03306758 -0.03257728 0.03436697 85 220 255 255 0.006534 0.449898
-0.04374567 0.02257067 0.002243095 85 220 255 255 0.683667 0.958125
0.003196116 0.02927651 0.06835137 255 255 0 255 0.243520 1.000000
-0.03035403 -0.01196593 0.0682529 255 255 0 255 0.777580 1.000000
0.02606976 -0.01385583 0.06829885 128 128 128 255 0.418390 0.875000
0.02767811 0.01159856 0.05860948 128 128 128 255 0.190341 0.875000
-0.02408735 0.01864542 0.06731695 128 128 128 255 0.876766 0.875000
-0.03201851 0.03049659 0.03072605 128 128 128 255 0.891136 0.371487
-0.03693876 0.01860839 0.05045467 128 128 128 255 0.967389 0.689605
-0.02714014 -0.0309213 0.01115321 128 128 128 255 0.821702 0.081816
0.02226593 -0.02190549 0.05243156 255 255 0 255 0.356596 0.875000
-0.005174061 -0.02975758 0.06830948 255 255 0 255 0.580977 0.875000
-0.03438653 -0.02872947 0.04022553 128 128 128 255 0.885305 0.453842
0.04096125 0.01803613 0.05068007 128 128 128 255 0.367298 0.500329
0.01185827 -0.02929162 0.03456866 128 128 128 255 0.431925 0.441211
-0.01432126 -0.02919171 0.03923192 128 128 128 255 0.555096 0.684697
-0.03147529 -0.0001218943 0.05780031 128 128 128 255 0.906556 0.845066
0.001073827 0.03111584 0.04425056 128 128 128 255 0.682504 0.627803
-0.02204699 -0.002943037 -0.009272597 128 128 128 255 0.793733 0.071684
0.04083972 -0.03156933 0.01703106 128 128 128 255 0.835174 0.259237
0.04096082 -0.002774439 -0.007781314 128 128 128 255 0.775796 0.009066
-0.02582691 0.02579187 0.005886476 128 128 128 255 0.833529 0.237737
0.0408998 0.02724267 0.007318262 128 128 128 255 0.802487 0.121526
-0.02393561 0.01843456 -0.001698083 128 128 128 255 0.792468 0.079329
0.04098 0.03182364 0.02338257 255 255 0 255 0.000000 0.428934
0.04668671 -0.01906791 -0.0009045484 255 255 0 255 0.000000 0.116329
0.04097619 -0.02172284 0.05182493 255 255 0 255 0.000000 0.596171
3 0 5 1 
3 1 6 2 
3 1 5 6 
3 7 8 12 
3 7 19 8 
3 7 14 4 
3 7 3 14 
3 12 3 7 
3 4 14 22 
3 0 11 5 
3 5 11 30 
3 6 30 11 
3 6 11 2 
3 5 30 6 
3 2 11 1 
3 11 0 1 
3 31 11 20 
3 16 11 9 
3 9 11 25 
3 20 11 10 
3 10 11 15 
3 15 11 30 
3 30 11 16 
3 8 18 12 
3 28 15 30 
3 3 21 14 
3 12 17 3 
3 13 12 18 
3 8 19 18 
3 24 19 7 
3 24 7 29 
3 7 4 23 
3 22 23 4 
3 31 26 11 
3 21 22 14 
3 29 7 23 
3 12 13 17 
3 19 24 25 
3 19 25 11 
3 19 11 18 
3 18 26 13 
3 13 26 20 
3 13 20 17 
3 3 17 27 
3 3 27 21 
3 22 21 28 
3 22 30 23 
3 24 9 25 
3 20 26 31 
3 20 10 17 
3 17 10 27 
3 27 10 15 
3 21 27 15 
3 21 15 28 
3 28 30 22 
3 29 23 16 
3 24 29 16 
3 9 24 16 
3 11 26 18 
3 30 16 23 
3 44 32 34 
3 42 44 34 
3 34 33 42 
3 35 47 36 
3 37 47 35 
3 35 38 37 
3 32 45 34 
3 34 45 39 
3 34 39 40 
3 34 40 33 
3 33 41 42 
3 42 43 44 
3 44 51 32 
3 32 51 45 
3 38 46 37 
3 37 46 60 
3 37 60 47 
3 36 47 48 
3 36 48 49 
3 36 49 35 
3 35 49 38 
3 38 49 53 
3 44 41 51 
3 43 41 44 
3 45 51 39 
3 42 41 43 
3 40 39 41 
3 40 41 33 
3 48 53 49 
3 53 60 46 
3 38 53 46 
3 60 48 47 
3 50 41 39 
3 52 41 50 
3 70 52 71 
3 50 68 69 
3 50 72 68 
3 52 50 71 
3 50 39 72 
3 52 51 41 
3 72 39 65 
3 65 39 51 
3 51 66 64 
3 51 52 66 
3 51 64 65 
3 54 68 48 
3 53 48 72 
3 53 72 61 
3 72 48 68 
3 56 60 53 
3 56 55 59 
3 53 61 56 
3 59 60 56 
3 48 60 54 
3 71 57 62 
3 62 57 58 
3 59 58 57 
3 59 57 60 
3 60 57 54 
3 67 62 63 
3 64 63 56 
3 63 62 58 
3 57 71 69 
3 63 55 56 
3 56 61 65 
3 63 58 55 
3 58 59 55 
3 54 57 69 
3 54 69 68 
3 52 67 66 
3 70 67 52 
3 50 69 71 
3 70 71 62 
3 62 67 70 
3 67 63 66 
3 66 63 64 
3 64 56 65 
3 65 61 72 
3 74 73 81 
3 80 75 79 
3 77 73 74 
3 76 81 73 
3 80 77 75 
3 78 73 77 
3 79 75 74 
3 76 73 78 
3 74 75 77 
3 78 77 80 
3 76 78 81 
3 81 78 74 
3 79 78 80 
3 74 78 79 
3 82 86 83 
3 82 91 84 
3 82 83 91 
3 84 90 85 
3 84 85 82 
3 82 85 97 
3 86 96 83 
3 88 89 92 
3 88 87 101 
3 88 101 103 
3 98 89 88 
3 88 103 98 
3 88 92 96 
3 84 91 90 
3 92 95 96 
3 97 93 104 
3 90 94 106 
3 94 99 106 
3 93 97 85 
3 99 94 89 
3 93 85 106 
3 106 85 90 
3 94 91 95 
3 94 90 91 
3 94 92 89 
3 94 95 92 
3 97 87 88 
3 104 87 97 
3 82 97 86 
3 95 91 83 
3 86 97 88 
3 95 83 96 
3 88 96 86 
3 105 99 89 
3 105 89 98 
3 98 100 105 
3 14 100 103 
3 103 100 98 
3 101 87 104 
3 104 102 101 
3 101 102 103 
3 100 93 106 
3 100 104 93 
3 100 102 104 
3 100 14 102 
3 100 99 105 
3 100 106 99 
3 14 103 102 
