ply
format ascii 1.0
comment VCGLIB generated
element vertex 54
property float x
property float y
property float z
property uchar red
property uchar green
property uchar blue
property uchar alpha
property float texture_u
property float texture_v
element face 100
property list uchar int vertex_indices
end_header
0.003428092 -0.05148353 -0.03040694 255 255 0 255 0.896222 1.000000
-0.03035003 -0.05108001 -0.0100277 255 255 0 255 0.733280 1.000000
-0.03087644 -0.05145363 0.005035597 255 255 0 255 0.321746 1.000000
-0.006631295 -0.05149936 0.02972007 255 255 0 255 0.166711 1.000000
0.0208536 -0.03459841 -0.02298053 128 128 128 255 0.777580 0.875000
0.02997534 -0.04088645 0.00646705 128 128 128 255 0.418390 0.875000
0.02338594 -0.05147386 0.01952714 128 128 128 255 0.321746 0.875000
0.01086969 -0.03994269 0.02895682 128 128 128 255 0.190341 0.875000
0.03096734 -0.001286889 -0.02725817 128 128 128 255 0.891136 0.371487
-0.02767225 -0.01983438 -0.03176502 128 128 128 255 0.967389 0.689605
0.02935519 -0.05146914 -0.009033842 255 255 0 255 0.580977 0.875000
-0.003665649 -0.03785729 -0.03635851 128 128 128 255 0.777630 0.004289
-0.0165472 -0.03679598 0.02718836 128 128 128 255 0.129470 0.824013
-0.0002684974 -0.03849073 0.04259999 128 128 128 255 0.124170 0.828553
0.03066359 -0.01377079 0.007632919 128 128 128 255 0.431925 0.441211
0.02451356 -0.03286644 0.01924068 128 128 128 255 0.357178 0.824579
-0.03188805 -0.01503627 0.004500033 128 128 128 255 0.409510 0.551342
-0.0290621 -0.02122235 0.01632198 128 128 128 255 0.321000 0.695000
-0.02774399 -0.03111108 -0.0161899 128 128 128 255 0.793000 0.860697
-0.01376063 -0.03851292 -0.02801485 128 128 128 255 0.914564 0.852158
0.02975744 -0.02419731 -0.01127414 128 128 128 255 0.637319 0.631211
0.02551568 -0.02467689 -0.03308902 128 128 128 255 0.918409 0.609789
0.02239464 0.01466079 -0.02326452 128 128 128 255 0.802487 0.121526
0.01214085 0.02188088 -0.02146417 128 128 128 255 0.781564 0.033408
0.01205494 0.02232911 0.04259636 128 128 128 255 0.784309 0.044947
-0.001656674 0.02390749 0.04261014 128 128 128 255 0.773633 0.000000
-0.02243884 0.01557774 -0.02303571 128 128 128 255 0.776441 0.002829
-0.02621486 0.01096154 -0.02418691 128 128 128 255 0.833529 0.237737
-0.03194937 -0.004284553 0.04260313 128 128 128 255 0.854895 0.342263
-0.02866876 0.006788112 0.04259995 128 128 128 255 0.830822 0.240868
-0.02078592 0.01757132 0.04259639 128 128 128 255 0.792468 0.079329
-0.03181167 -0.005411786 -0.02826554 128 128 128 255 0.889112 0.486421
-0.02618846 -0.0270845 0.04263658 255 255 0 255 0.000000 0.793118
0.02356708 0.01402033 0.04259533 255 255 0 255 0.000000 0.116329
0.03064504 0.001222948 0.04258658 255 255 0 255 0.000000 0.428934
0.0288815 -0.01715589 0.04259995 255 255 0 255 0.000000 0.646250
0.02240245 -0.0287605 0.04132986 255 255 0 255 0.000000 0.731974
0.005655827 -0.04004512 -0.03096715 128 128 128 255 0.529632 1.000000
0.02047309 -0.02257951 -0.0452067 85 220 255 255 0.271167 0.319074
0.006107335 0.02025405 -0.04148801 85 220 255 255 0.395039 0.734118
-0.02582036 -0.01311157 -0.04395077 85 220 255 255 0.824706 0.297234
0.01419667 0.02084504 -0.02421131 85 220 255 255 0.288845 0.921636
-0.02230904 0.01311197 -0.03985178 85 220 255 255 0.658710 0.936830
0.02437674 0.008362098 -0.04177407 85 220 255 255 0.042574 0.535516
-0.005616111 -0.03208198 -0.04403428 85 220 255 255 0.585156 0.058064
-0.02523817 0.0126143 -0.03164845 85 220 255 255 0.893635 0.766668
-0.03139524 -0.01864524 -0.03443073 85 220 255 255 0.973599 0.534722
0.007868901 -0.0400998 -0.03464777 85 220 255 255 0.190085 0.137798
-0.01126921 -0.0383909 -0.0342209 85 220 255 255 0.566282 0.005635
0.02922662 -0.01891361 -0.03293698 85 220 255 255 0.074920 0.237737
0.02938199 0.00363152 -0.02804046 85 220 255 255 0.026060 0.657467
-0.01293373 0.02200057 -0.02573203 85 220 255 255 0.547905 0.997618
0.01483115 0.01351463 -0.02134528 85 220 255 255 0.597122 0.989259
-0.02875237 -0.008073352 -0.02671489 85 220 255 255 0.872278 0.169274
3 2 1 0 
3 3 12 2 
3 6 3 2 
3 2 10 6 
3 0 10 2 
3 0 4 10 
3 6 10 5 
3 6 7 3 
3 3 7 12 
3 1 19 0 
3 0 19 37 
3 11 8 21 
3 9 31 11 
3 11 31 27 
3 22 8 11 
3 11 27 26 
3 23 22 11 
3 11 21 37 
3 6 15 7 
3 5 15 6 
3 0 37 4 
3 9 19 18 
3 11 19 9 
3 11 37 19 
3 26 23 11 
3 17 32 16 
3 17 12 32 
3 15 14 36 
3 10 20 5 
3 17 2 12 
3 16 1 17 
3 17 1 2 
3 34 14 8 
3 13 12 7 
3 14 5 20 
3 14 15 5 
3 15 36 7 
3 14 20 8 
3 20 21 8 
3 31 16 28 
3 18 19 1 
3 20 10 4 
3 16 18 1 
3 18 31 9 
3 31 18 16 
3 21 4 37 
3 21 20 4 
3 33 34 22 
3 22 34 8 
3 33 22 23 
3 23 24 33 
3 23 25 24 
3 26 25 23 
3 30 25 26 
3 27 28 29 
3 27 31 28 
3 30 26 27 
3 13 32 12 
3 13 28 32 
3 29 28 13 
3 13 30 29 
3 25 30 13 
3 13 24 25 
3 13 33 24 
3 13 34 33 
3 35 34 13 
3 13 36 35 
3 13 7 36 
3 34 35 14 
3 36 14 35 
3 28 16 32 
3 30 27 29 
3 39 43 38 
3 38 40 39 
3 46 44 48 
3 44 46 40 
3 39 40 42 
3 51 42 45 
3 45 42 46 
3 49 43 50 
3 41 43 39 
3 40 46 42 
3 49 38 43 
3 47 38 49 
3 48 44 47 
3 44 40 38 
3 47 44 38 
3 42 51 39 
3 39 51 41 
3 43 41 50 
3 53 45 46 
3 53 51 45 
3 51 52 41 
3 53 48 51 
3 51 48 52 
3 47 52 48 
3 46 48 53 
3 50 41 52 
3 49 50 52 
3 52 47 49 
