ply
format ascii 1.0
comment VCGLIB generated
element vertex 54
property float x
property float y
property float z
property uchar red
property uchar green
property uchar blue
property uchar alpha
property float texture_u
property float texture_v
element face 100
property list uchar int vertex_indices
end_header
-0.0003317398 0.0448102 -0.02725575 255 255 0 255 0.908074 1.000000
0.02095402 0.04484481 -0.01951505 255 255 0 255 0.684832 1.000000
0.02970581 0.04479484 0.009648676 255 255 0 255 0.279876 1.000000
0.007409416 0.04485326 0.03234106 255 255 0 255 0.166711 1.000000
-0.02606421 0.04485282 0.0207218 255 255 0 255 0.321746 1.000000
-0.02582395 0.0440758 -0.01495543 255 255 0 255 0.777580 1.000000
-0.03043302 0.03484782 0.009019924 128 128 128 255 0.418390 0.875000
-0.02263969 0.02590879 0.02450804 128 128 128 255 0.243520 0.875000
0.02966992 0.01840895 -0.007383861 128 128 128 255 0.733280 0.875000
-0.03139335 -0.005346095 -0.02464118 128 128 128 255 0.891136 0.371487
0.02695392 0.01438521 -0.0295292 128 128 128 255 0.956548 0.644408
-0.004433576 0.0355767 -0.02780872 255 255 0 255 0.918346 0.875000
0.0177101 0.02880178 0.02826838 255 255 0 255 0.274461 0.875000
0.003239635 0.03122429 -0.03374151 128 128 128 255 0.777630 0.004289
0.03141783 0.006720706 0.01020722 128 128 128 255 0.469647 0.463921
-0.0269619 0.01713124 0.04520725 128 128 128 255 0.226620 0.713461
-0.01101732 0.03071354 0.04521391 128 128 128 255 0.124170 0.828553
-0.03116545 0.006878018 0.01173339 128 128 128 255 0.331183 0.564026
0.02739415 0.01590053 0.01966375 128 128 128 255 0.321000 0.695000
-0.002392987 0.03563626 0.03298336 128 128 128 255 0.140931 0.845934
0.01914769 0.02895003 -0.0231692 128 128 128 255 0.914564 0.852158
-0.03018344 0.01756431 -0.008657142 128 128 128 255 0.637319 0.631211
-0.0216429 0.02751608 -0.02065111 128 128 128 255 0.822714 0.787461
-0.01670741 0.02578402 -0.0323925 128 128 128 255 0.941584 0.707421
-0.02951058 0.01201911 -0.02895392 128 128 128 255 0.915146 0.596066
-0.02339021 -0.02125884 0.04521669 128 128 128 255 0.822853 0.207316
-0.03125124 -0.007445019 0.045095 128 128 128 255 0.835174 0.259237
-0.02282065 -0.02129378 -0.02064752 128 128 128 255 0.802487 0.121526
-0.01256664 -0.0285142 -0.01884332 128 128 128 255 0.784309 0.044947
-0.002804645 -0.03118675 0.0453241 128 128 128 255 0.773633 0.000000
0.02201284 -0.02221074 -0.02041871 128 128 128 255 0.776441 0.002829
0.02578887 -0.01759452 -0.02156991 128 128 128 255 0.833529 0.237737
0.01245066 -0.02896849 0.04515976 128 128 128 255 0.787472 0.058289
0.03152342 -0.002348432 0.04521822 128 128 128 255 0.854895 0.342263
0.02613037 -0.01776298 0.04521037 128 128 128 255 0.830822 0.240868
0.03142544 -0.00109259 -0.02568341 128 128 128 255 0.889112 0.486421
0.0233483 0.02387381 0.04522151 255 255 0 255 0.000000 0.596171
-0.01584232 0.01464653 -0.04249093 85 220 255 255 0.241444 0.286197
0.01237638 0.02328137 -0.0415115 85 220 255 255 0.763274 0.275518
-0.002914038 -0.02514549 -0.03901339 85 220 255 255 0.259262 0.792914
0.03001004 0.003986442 -0.03326696 85 220 255 255 0.972481 0.508507
-0.01953573 -0.02177082 -0.03692785 85 220 255 255 0.263561 0.817899
0.02579869 -0.007144918 -0.03970242 85 220 255 255 0.817861 0.758776
0.0107172 -0.02692993 -0.03712635 85 220 255 255 0.726459 0.874515
0.02112566 0.02345835 -0.03301672 85 220 255 255 0.725714 0.110322
-0.004884113 0.02398609 -0.04254856 85 220 255 255 0.477595 0.024891
0.009035042 -0.02947902 -0.02091523 85 220 255 255 0.603129 0.966173
-0.002508592 0.03324247 -0.03197359 85 220 255 255 0.566282 0.005635
-0.02605818 0.01925795 -0.03233895 85 220 255 255 0.209192 0.093853
-0.02703075 0.004221678 -0.03956015 85 220 255 255 0.003896 0.502856
-0.003829453 -0.0304259 -0.02164111 85 220 255 255 0.374583 0.983951
0.02053953 -0.02344264 -0.02414848 85 220 255 255 0.836688 0.868911
0.03059441 -0.005065353 -0.02406394 85 220 255 255 0.993745 0.429350
-0.02965013 -0.01199884 -0.02087928 85 220 255 255 0.240125 0.922088
3 4 1 0 
3 4 2 1 
3 4 3 2 
3 4 0 5 
3 0 11 5 
3 5 6 4 
3 4 6 7 
3 4 7 19 
3 4 19 3 
3 3 19 12 
3 3 12 2 
3 1 2 8 
3 13 9 24 
3 10 35 13 
3 13 35 31 
3 27 9 13 
3 13 31 30 
3 28 27 13 
3 24 23 13 
3 13 23 11 
3 0 20 11 
3 1 20 0 
3 8 20 1 
3 5 11 22 
3 13 20 10 
3 13 11 20 
3 30 28 13 
3 18 36 14 
3 19 36 12 
3 15 16 7 
3 7 17 15 
3 18 2 12 
3 14 8 2 
3 14 2 18 
3 26 17 9 
3 36 19 16 
3 16 19 7 
3 17 6 21 
3 6 17 7 
3 17 21 9 
3 21 24 9 
3 21 23 24 
3 8 10 20 
3 35 14 33 
3 21 5 22 
3 5 21 6 
3 8 35 10 
3 35 8 14 
3 23 22 11 
3 23 21 22 
3 25 26 27 
3 27 26 9 
3 25 27 28 
3 30 29 28 
3 30 32 29 
3 31 33 34 
3 31 35 33 
3 34 30 31 
3 30 34 32 
3 25 36 16 
3 25 33 36 
3 34 33 25 
3 25 32 34 
3 25 29 32 
3 25 28 29 
3 15 26 25 
3 25 16 15 
3 26 15 17 
3 36 18 12 
3 33 14 36 
3 39 50 41 
3 37 48 45 
3 37 49 48 
3 37 38 39 
3 38 44 40 
3 39 43 46 
3 39 46 50 
3 43 51 46 
3 42 51 43 
3 39 41 37 
3 37 41 49 
3 37 45 38 
3 39 38 42 
3 42 43 39 
3 38 40 42 
3 53 49 41 
3 47 45 48 
3 44 38 47 
3 47 38 45 
3 42 40 52 
3 53 41 50 
3 42 52 51 
3 52 47 51 
3 51 47 46 
3 46 47 50 
3 44 47 52 
3 52 40 44 
3 48 49 53 
3 53 47 48 
3 50 47 53 
