ply
format ascii 1.0
comment VCGLIB generated
element vertex 54
property float x
property float y
property float z
property uchar red
property uchar green
property uchar blue
property uchar alpha
element face 100
property list uchar int vertex_indices
end_header
0.02999747 0.008509303 -0.03525113 180 180 180 255 
0.0267661 -0.01409883 -0.03448629 180 180 180 255 
-0.0001699249 -0.01643119 -0.00468001 180 180 180 255 
-0.0166854 -0.005689486 -0.004622989 180 180 180 255 
0.002975192 0.01721062 -0.004648371 180 180 180 255 
0.01443682 -0.006607679 -0.004607316 180 180 180 255 
-0.0183948 0.0003490846 0.001224105 180 180 180 255 
0.006871705 -0.01420599 0.001005484 180 180 180 255 
0.001731165 -0.02818992 -0.01515728 180 180 180 255 
-0.008503031 0.03050714 -0.03699812 180 180 180 255 
-0.004029247 -0.03040677 -0.03709695 180 180 180 255 
0.02756601 -0.01367422 -0.03717627 180 180 180 255 
-0.01711083 -0.02132253 0.001815032 180 180 180 255 
0.01753668 0.01745116 0.00182102 180 180 180 255 
0.03155795 -0.0004419453 -0.03027659 180 180 180 255 
0.006920545 0.03083974 -0.03007249 180 180 180 255 
-0.03018933 0.007250368 -0.03716774 180 180 180 255 
0.0270279 -0.01649105 -0.02978013 180 180 180 255 
0.01212018 -0.02901982 -0.02576358 180 180 180 255 
0.02340631 0.02136991 -0.03716902 180 180 180 255 
-0.02251923 -0.021835 -0.03717405 180 180 180 255 
-0.02419306 0.02129013 -0.0304229 180 180 180 255 
0.01012841 -0.02889013 0.001476629 180 180 180 255 
0.02666199 -0.01717008 0.001968895 180 180 180 255 
0.03055706 0.007301579 0.0007802612 180 180 180 255 
0.01891563 0.02641789 0.0007961807 180 180 180 255 
-0.009423875 0.03083044 0.001718334 180 180 180 255 
-0.02640243 0.01837857 0.001582574 180 180 180 255 
-0.03190843 -0.004687608 0.001798821 180 180 180 255 
-0.03096019 -0.007352804 -0.03058013 180 180 180 255 
-0.02310379 -0.02200124 0.001968727 180 180 180 255 
-0.01209736 -0.02887572 -0.01042792 180 180 180 255 
0.06969222 -0.03217233 0.005820146 180 180 180 255 
0.03047175 -0.06761175 0.00582 180 180 180 255 
0.0419705 -0.06081812 0.00182 180 180 180 255 
0.00939425 -0.07379875 0.00182 180 180 180 255 
-0.00592175 -0.07419325 0.00582 180 180 180 255 
-0.04282234 -0.06169648 0.005819893 180 180 180 255 
-0.04113241 -0.06480788 0.001819261 180 180 180 255 
-0.07327864 -0.02113308 0.001819683 180 180 180 255 
-0.06992899 -0.0309944 0.005820138 180 180 180 255 
-0.0734475 0.01245688 0.00582 180 180 180 255 
-0.072219 0.01906225 0.00182 180 180 180 255 
-0.05785038 0.04694425 0.00582 180 180 180 255 
-0.05330841 0.05419204 0.001819645 181 181 181 255 
-0.02823925 0.06910275 0.00582 180 180 180 255 
-0.00807017 0.07611905 0.001819683 180 180 180 255 
0.01362269 0.07570045 0.005820062 180 180 180 255 
0.05309089 0.05638072 0.00181954 180 180 180 255 
0.05626575 0.04843175 0.00582 180 180 180 255 
0.07276268 0.01460431 0.00582 180 180 180 255 
0.07394937 0.007266125 0.00182 180 180 180 255 
0.01783596 0.01804733 0.00582 180 180 180 255 
0.06745327 -0.03394827 0.00182 180 180 180 255 
3 0 1 14 
3 1 0 14 
3 2 4 3 
3 2 5 4 
3 4 6 3 
3 6 7 3 
3 3 7 2 
3 2 7 5 
3 19 16 9 
3 19 20 16 
3 10 20 19 
3 19 11 10 
3 4 5 13 
3 13 5 7 
3 13 6 4 
3 18 22 8 
3 14 11 19 
3 15 19 9 
3 21 9 16 
3 29 16 20 
3 18 10 17 
3 17 10 11 
3 17 11 14 
3 7 6 12 
3 28 12 6 
3 7 23 13 
3 13 27 6 
3 26 27 13 
3 6 27 28 
3 23 7 22 
3 7 12 22 
3 31 10 18 
3 18 8 22 
3 18 22 31 
3 23 14 24 
3 23 24 13 
3 24 25 13 
3 13 25 26 
3 28 30 12 
3 30 31 12 
3 12 31 22 
3 10 31 20 
3 14 23 17 
3 17 23 18 
3 22 18 23 
3 31 30 20 
3 20 30 29 
3 30 28 29 
3 29 28 16 
3 28 27 16 
3 16 27 21 
3 27 26 21 
3 21 26 9 
3 9 26 15 
3 26 25 15 
3 15 25 19 
3 25 24 19 
3 19 24 14 
3 51 50 32 
3 51 32 53 
3 53 32 34 
3 34 32 33 
3 34 33 35 
3 35 33 36 
3 35 36 38 
3 38 36 37 
3 38 37 40 
3 38 40 39 
3 39 40 41 
3 39 41 42 
3 42 41 43 
3 42 43 44 
3 44 43 45 
3 44 45 46 
3 46 45 47 
3 46 47 48 
3 48 47 49 
3 48 49 50 
3 48 50 51 
3 32 52 47 
3 37 36 33 
3 52 32 50 
3 52 50 49 
3 32 37 33 
3 47 52 49 
3 37 32 41 
3 41 32 47 
3 37 41 40 
3 45 43 47 
3 47 43 41 
3 53 35 38 
3 53 38 39 
3 42 53 39 
3 53 34 35 
3 51 53 48 
3 53 13 48 
3 46 13 44 
3 44 13 42 
3 53 42 13 
3 13 46 48 
