ply
format ascii 1.0
comment VCGLIB generated
element vertex 443
property float x
property float y
property float z
property uchar red
property uchar green
property uchar blue
property uchar alpha
element face 999
property list uchar int vertex_indices
end_header
0.007599 -0.014847 0.523314 55 54 55 255 
0.007599 -0.016464 0.523314 55 54 55 255 
-0.006401 -0.006764 0.523314 55 54 55 255 
-0.007801 -0.007573 0.523314 55 54 55 255 
-0.006401 0.009402 0.523314 55 54 55 255 
-0.007801 0.01021 0.523314 55 54 55 255 
0.007599 0.017484 0.523314 55 54 55 255 
0.007599 0.019101 0.523314 55 54 55 255 
0.021599 0.009402 0.523314 55 54 55 255 
0.022999 0.01021 0.523314 55 54 55 255 
0.021599 -0.006764 0.523314 55 54 55 255 
0.022999 -0.007573 0.523314 55 54 55 255 
0.007599 -0.016464 0.551314 55 54 55 255 
0.022999 -0.007573 0.551314 55 54 55 255 
0.007599 0.019101 0.551314 55 54 55 255 
-0.007801 0.01021 0.551314 55 54 55 255 
-0.007801 -0.007573 0.551314 55 54 55 255 
0.021599 0.009401 0.551314 55 54 55 255 
0.021599 -0.006764 0.551314 55 54 55 255 
0.007599 -0.014847 0.551314 55 54 55 255 
-0.006401 -0.006764 0.551314 55 54 55 255 
-0.006401 0.009402 0.551314 55 54 55 255 
0.007599 0.017484 0.551314 55 54 55 255 
0.022299 -0.024143 0.533814 55 54 55 255 
0.01527401 -0.01232749 0.5338357 55 54 55 255 
0.022299 -0.024143 0.540814 55 54 55 255 
0.01557976 -0.01215097 0.5407923 55 54 55 255 
-0.007801 0.01021 0.552714 55 54 55 255 
-0.007801 -0.007573 0.552714 55 54 55 255 
0.007599 -0.016464 0.552714 55 54 55 255 
0.022999 -0.007573 0.552714 55 54 55 255 
0.022999 0.01021 0.552714 55 54 55 255 
0.02299874 0.01020956 0.551314 55 54 55 255 
0.00769672 0.01892729 0.552714 55 54 55 255 
0.01557964 0.01478805 0.5338357 55 54 55 255 
0.022299 0.02678 0.533814 55 54 55 255 
0.02186991 0.02603671 0.5399983 55 54 55 255 
0.015299 0.014655 0.540814 55 54 55 255 
-0.02088754 0.001319 0.5346251 55 54 55 255 
-0.007801 0.001319 0.533814 55 54 55 255 
-0.021801 0.001319 0.540814 55 54 55 255 
-0.008056515 0.001153274 0.5407923 55 54 55 255 
0.02948483 -0.01768949 0.5411634 55 54 55 255 
0.02902205 -0.01479533 0.5382816 55 54 55 255 
0.02707706 -0.0137325 0.5401002 55 54 55 255 
0.06326337 -0.07648931 0.2696335 55 54 55 255 
0.05808756 -0.07799105 0.2699534 55 54 55 255 
0.05889012 -0.07842027 0.2710769 55 54 55 255 
0.0249755 -0.014777 0.540061 55 54 55 255 
0.02387817 -0.01882731 0.5381302 55 54 55 255 
0.02299067 -0.0183315 0.5383428 55 54 55 255 
0.059362 -0.0813375 0.2702355 55 54 55 255 
0.02208731 -0.01582881 0.5399183 55 54 55 255 
0.02323351 -0.01461237 0.539789 55 54 55 255 
0.02730281 -0.01279988 0.5399141 55 54 55 255 
0.06393772 -0.07527935 0.2694431 55 54 55 255 
0.06154156 -0.08269325 0.2708428 55 54 55 255 
0.02486406 -0.0193337 0.5405207 55 54 55 255 
0.06657812 -0.08012488 0.2709212 55 54 55 255 
0.03030775 -0.01713275 0.541322 55 54 55 255 
0.030183 -0.01809737 0.5415294 55 54 55 255 
0.027849 -0.019755 0.541601 55 54 55 255 
0.06619588 -0.08118538 0.2711163 55 54 55 255 
0.06184937 -0.08367488 0.2711116 55 54 55 255 
0.0607405 -0.083472 0.2709157 55 54 55 255 
0.025512 -0.020963 0.5415685 55 54 55 255 
0.02456575 -0.02071938 0.5413851 55 54 55 255 
0.06540351 -0.07990196 0.2730706 55 54 55 255 
0.06196703 -0.07820998 0.2890056 55 54 55 255 
0.0523905 -0.08536249 0.2702355 55 54 55 255 
0.01716494 -0.02459713 0.5412934 55 54 55 255 
0.01501708 -0.02063035 0.5397254 55 54 55 255 
0.04994315 -0.08287092 0.26933 55 54 55 255 
0.05407388 -0.08617961 0.2706505 55 54 55 255 
0.01794548 -0.02361058 0.538827 55 54 55 255 
0.05443813 -0.08720338 0.2709374 55 54 55 255 
0.01819275 -0.0253293 0.5416009 55 54 55 255 
0.05589849 -0.08607109 0.27087 55 54 55 255 
0.05057212 -0.09031557 0.2711416 55 54 55 255 
0.01468025 -0.019691 0.5398223 55 54 55 255 
0.05140544 -0.08257256 0.2694567 55 54 55 255 
0.01566062 -0.0199755 0.5400194 55 54 55 255 
0.0152175 -0.025876 0.541329 55 54 55 255 
0.04605654 -0.08628848 0.2696017 55 54 55 255 
0.0131515 -0.02792325 0.5415276 55 54 55 255 
0.04907919 -0.09059288 0.2710059 55 54 55 255 
0.01185217 -0.02705878 0.5408974 55 54 55 255 
0.04628 -0.08530337 0.2694038 55 54 55 255 
0.0100115 -0.02224648 0.5397891 55 54 55 255 
0.048147 -0.0878125 0.2702355 55 54 55 255 
0.01224506 -0.02562163 0.5397236 55 54 55 255 
0.01184248 -0.02598076 0.5381777 55 54 55 255 
0.01738465 0.02736638 0.5409935 55 54 55 255 
0.05343922 0.08981544 0.2718764 55 54 55 255 
0.01450967 0.03009377 0.541601 55 54 55 255 
0.0494135 0.09232331 0.2708407 55 54 55 255 
0.048147 0.0904495 0.2702355 55 54 55 255 
0.01184245 0.02861803 0.5381777 55 54 55 255 
0.01027396 0.02694986 0.5396197 55 54 55 255 
0.047238 0.09097449 0.2702355 55 54 55 255 
0.04873613 0.09316713 0.2709454 55 54 55 255 
0.0123185 0.0302595 0.5413461 55 54 55 255 
0.04980613 0.09331275 0.2711226 55 54 55 255 
0.0134675 0.03058013 0.5415746 55 54 55 255 
0.05425091 0.09015074 0.2732947 55 54 55 255 
0.01806625 0.02739856 0.5414523 55 54 55 255 
0.01678233 0.02423291 0.538219 55 54 55 255 
0.008406712 0.02697873 0.5400605 55 54 55 255 
0.04630138 0.087836 0.2693822 55 54 55 255 
0.0460785 0.0887135 0.2695557 55 54 55 255 
0.009864375 0.02555875 0.5399266 55 54 55 255 
0.01185068 0.02757917 0.539523 55 54 55 255 
0.01474144 0.02215315 0.5397894 55 54 55 255 
0.04715813 0.08840225 0.2696283 55 54 55 255 
0.05086661 0.08442091 0.2711378 55 54 55 255 
0.05207507 0.08535445 0.2699243 55 54 55 255 
0.02567973 0.01583638 0.539789 55 54 55 255 
0.0632945 0.07912406 0.2696371 55 54 55 255 
0.06620301 0.08392758 0.2711417 55 54 55 255 
0.02949242 0.02033878 0.5411131 55 54 55 255 
0.0279445 0.01570563 0.5400625 55 54 55 255 
0.06404576 0.0783395 0.2695557 55 54 55 255 
0.063066 0.07809325 0.2693676 55 54 55 255 
0.0268855 0.01533737 0.539835 55 54 55 255 
0.05858147 0.08052244 0.2693298 55 54 55 255 
0.06683031 0.08291148 0.2709897 55 54 55 255 
0.0307067 0.02036019 0.5408452 55 54 55 255 
0.06121 0.080175 0.269602 55 54 55 255 
0.0635765 0.08427399 0.27087 55 54 55 255 
0.05795462 0.08152694 0.2694792 55 54 55 255 
0.06113981 0.08621532 0.270994 55 54 55 255 
0.02528449 0.02387035 0.5416 55 54 55 255 
0.06148325 0.08532681 0.2708343 55 54 55 255 
0.02178816 0.0188712 0.5393103 55 54 55 255 
0.02286937 0.01866917 0.5399377 55 54 55 255 
-0.08761044 0.01063725 0.2696319 55 54 55 255 
-0.09324449 0.01076698 0.2711416 55 54 55 255 
-0.02042444 0.01180768 0.5408439 55 54 55 255 
-0.01982671 0.01076981 0.5410828 55 54 55 255 
-0.09223089 0.005869138 0.2708697 55 54 55 255 
-0.0140158 0.0112782 0.5397898 55 54 55 255 
-0.08648607 0.01123997 0.2693312 55 54 55 255 
-0.09267639 0.01181859 0.2709888 55 54 55 255 
-0.08749946 0.004822498 0.2696019 55 54 55 255 
-0.01502729 0.002207734 0.540061 55 54 55 255 
-0.08675825 0.005506375 0.2694038 55 54 55 255 
-0.01470475 0.005100875 0.5399745 55 54 55 255 
-0.02036267 0.004824668 0.5409226 55 54 55 255 
-0.09266069 0.004824115 0.2709843 55 54 55 255 
-0.02077618 0.006919043 0.5416011 55 54 55 255 
-0.01507613 0.006065875 0.5400739 55 54 55 255 
-0.01717737 0.005876875 0.5394893 55 54 55 255 
-0.01868247 -0.002181 0.5364486 55 54 55 255 
-0.01982655 -0.003230192 0.5410827 55 54 55 255 
-0.09191575 -0.003231108 0.2720451 55 54 55 255 
-0.08851075 -0.005965297 0.2888095 55 54 55 255 
-0.09214525 -0.007941125 0.2708473 55 54 55 255 
-0.08708691 -0.008130874 0.2711335 55 54 55 255 
-0.0169375 -0.00917675 0.5382036 55 54 55 255 
-0.01915483 -0.008069344 0.538871 55 54 55 255 
-0.0898645 -0.009181 0.2702355 55 54 55 255 
-0.01975662 -0.009107376 0.5413281 55 54 55 255 
-0.0924025 -0.009055 0.2709157 55 54 55 255 
-0.02060512 -0.008373875 0.5415555 55 54 55 255 
-0.09313238 -0.008196 0.2711116 55 54 55 255 
-0.020776 -0.005681 0.541601 55 54 55 255 
-0.02065325 -0.003054 0.5415685 55 54 55 255 
-0.09312512 -0.003081125 0.2711096 55 54 55 255 
-0.09242263 -0.00232575 0.2709212 55 54 55 255 
-0.01996937 -0.002355625 0.5413851 55 54 55 255 
-0.0898645 -0.002181 0.2702355 55 54 55 255 
-0.01503313 -0.002255375 0.5400625 55 54 55 255 
-0.08732625 -0.002308 0.2695557 55 54 55 255 
-0.08659612 -0.00316625 0.2693604 55 54 55 255 
-0.0142085 -0.002939875 0.5398415 55 54 55 255 
-0.01401437 -0.004457142 0.5397891 55 54 55 255 
-0.01440362 -0.008632749 0.5398937 55 54 55 255 
-0.08492705 -0.00863831 0.2751534 55 54 55 255 
-0.01505244 -0.008103287 0.5399706 55 54 55 255 
-0.08758338 -0.003421625 0.2696247 55 54 55 255 
0.0940615 -0.1414401 0.02069513 56 55 56 255 
0.0566673 -0.08052064 0.291426 55 54 55 255 
0.09197 -0.1399155 0.0200615 60 59 60 255 
0.055735 -0.0771555 0.2905205 55 54 55 255 
0.08952098 -0.1374256 0.01915489 55 54 55 255 
0.05035045 -0.08300094 0.2911565 55 54 55 255 
0.0886645 -0.139091 0.019427 55 54 55 255 
0.05243 -0.076331 0.289886 55 54 55 255 
0.0894174 -0.1452918 0.02096694 55 54 55 255 
0.08829676 -0.1450594 0.02076275 59 58 59 255 
0.05206237 -0.082299 0.291222 55 54 55 255 
0.0860445 -0.1415512 0.01964724 59 58 59 255 
0.05135753 -0.08147121 0.2909358 55 54 55 255 
0.04901462 -0.07531795 0.2891937 55 54 55 255 
0.08580619 -0.1400911 0.01927625 59 58 59 255 
0.049671 -0.07697263 0.2896656 55 54 55 255 
0.05053496 -0.07625388 0.2896149 55 54 55 255 
0.09098463 -0.137126 0.019282 55 54 55 255 
0.05477612 -0.07437206 0.289746 55 54 55 255 
0.05586916 -0.0752892 0.2901054 55 54 55 255 
0.09389082 -0.1422165 0.02085263 55 54 55 255 
0.05763718 -0.07946619 0.2913116 55 54 55 255 
-0.1602791 0.002891051 0.02096701 179 178 179 255 
-0.08594494 0.004819144 0.2909268 55 54 55 255 
-0.159265 0.001319 0.020695 74 73 74 255 
-0.086796 0.001319 0.291155 55 54 55 255 
-0.1568985 -0.001131 0.0200615 85 84 85 255 
-0.082062 0.001319 0.289886 55 54 55 255 
-0.1568985 0.003769 0.0200615 62 61 62 255 
-0.084429 0.003769 0.2905205 55 54 55 255 
-0.1535179 -0.0002630422 0.01915494 55 54 55 255 
-0.08290458 -0.002181121 0.290112 55 54 55 255 
-0.154532 0.001319 0.019427 62 61 62 255 
-0.1553535 0.004818484 0.01964751 84 84 84 255 
-0.08152075 0.00431025 0.289741 55 54 55 255 
-0.1539686 0.004294187 0.01927625 73 72 73 255 
-0.08104853 0.002920341 0.289615 55 54 55 255 
-0.1539899 -0.001672938 0.019282 189 189 189 255 
-0.08153944 -0.001692313 0.289746 55 54 55 255 
-0.1584483 -0.002180465 0.02047674 62 62 62 255 
-0.08730306 -0.001714438 0.2912906 55 54 55 255 
-0.1597881 -0.001692313 0.02083556 62 62 62 255 
-0.08780932 -0.001130692 0.2914262 55 54 55 255 
-0.159818 0.004270937 0.02084363 62 62 62 255 
-0.08735868 0.004294187 0.2913055 55 54 55 255 
0.05740762 0.08058842 0.2909292 55 54 55 255 
0.0547965 0.083067 0.291155 55 54 55 255 
0.09211873 0.1407102 0.01965384 58 57 58 255 
0.05326126 0.07550015 0.2891925 55 54 55 255 
0.0877265 0.1450025 0.0200615 55 54 55 255 
0.0498213 0.08144983 0.2901129 55 54 55 255 
0.0886645 0.141728 0.019427 56 55 56 255 
0.05243 0.078968 0.289886 55 54 55 255 
0.09101075 0.1397696 0.019287 55 54 55 255 
0.05436562 0.07689963 0.2896656 55 54 55 255 
0.08677269 0.1416502 0.01915521 55 54 55 255 
0.05331263 0.0772882 0.2896158 55 54 55 255 
0.08580631 0.1427282 0.01927625 55 54 55 255 
0.04954325 0.0801065 0.2897637 55 54 55 255 
0.08759189 0.1468688 0.02047638 55 54 55 255 
0.05396695 0.08653042 0.2918471 55 54 55 255 
0.08843388 0.1477729 0.02079888 58 57 58 255 
0.086593 0.1483908 0.02069553 60 59 60 255 
0.05280675 0.08513887 0.2913689 55 54 55 255 
0.05391387 0.08474664 0.2914263 55 54 55 255 
0.09292742 0.1459033 0.02096721 56 55 56 255 
0.0938725 0.145048 0.02089537 56 55 56 255 
0.09444956 0.1468458 0.02139004 70 69 70 255 
0.057666 0.08201444 0.2912948 55 54 55 255 
-0.02839066 0.02371858 0.5838218 55 54 55 255 
-0.02686353 0.03054469 0.5750645 55 54 55 255 
-0.02856608 0.03281526 0.5899892 55 54 55 255 
-0.02848175 0.01895025 0.5889115 55 54 55 255 
-0.0251222 0.01882618 0.5597571 55 54 55 255 
0.019094 0.040869 0.567308 55 54 55 255 
0.017862 0.041219 0.577735 55 54 55 255 
0.01786397 -0.038581 0.5777308 55 54 55 255 
0.019094 -0.038231 0.567308 55 54 55 255 
0.019258 -0.037881 0.565918 55 54 55 255 
0.019258 0.040519 0.565918 55 54 55 255 
-0.009939 -0.037881 0.562468 55 54 55 255 
-0.012883 -0.037881 0.56353 55 54 55 255 
-0.01981 -0.014081 0.5625 55 54 55 255 
-0.022767 -0.014081 0.587526 55 54 55 255 
-0.01981 0.016719 0.5625 55 54 55 255 
-0.022767 0.016719 0.587526 55 54 55 255 
-0.028328 0.016719 0.586869 55 54 55 255 
-0.015828 0.03281446 0.564592 55 54 55 255 
-0.012883 0.040519 0.56353 55 54 55 255 
-0.009939 0.040519 0.562468 55 54 55 255 
0.02071362 0.041219 0.5696232 55 54 55 255 
0.02821896 0.041219 0.5705598 55 54 55 255 
0.027247 0.041219 0.578844 55 54 55 255 
0.02724665 -0.03863858 0.578844 55 54 55 255 
0.020586 -0.038581 0.569599 55 54 55 255 
0.02822486 -0.038581 0.5705584 55 54 55 255 
-0.017422 -0.086181 0.578078 55 54 55 255 
0.020832 -0.08592936 0.567513 55 54 55 255 
-0.012883 -0.086181 0.56353 55 54 55 255 
0.020586 -0.082681 0.569599 55 54 55 255 
-0.01374456 -0.08618099 0.5655451 55 54 55 255 
-0.01992914 0.01881956 0.5575526 55 54 55 255 
-0.009939 0.018819 0.562468 55 54 55 255 
0.00301 0.018819 0.560262 55 54 55 255 
0.009526 0.018819 0.564768 55 54 55 255 
-0.019007 0.018994 0.591495 55 54 55 255 
-0.02503119 0.03278549 0.5638405 55 54 55 255 
-0.02595804 -0.0161695 0.590674 55 54 55 255 
-0.028575 -0.016181 0.588955 55 54 55 255 
-0.015828 -0.086181 0.564592 55 54 55 255 
-0.015828 -0.016181 0.564592 55 54 55 255 
-0.009939 -0.016181 0.562468 55 54 55 255 
0.009526 -0.016181 0.564768 55 54 55 255 
0.00301 -0.016181 0.560262 55 54 55 255 
-0.019931 -0.016181 0.557552 55 54 55 255 
-0.025125 -0.016181 0.559758 55 54 55 255 
-0.015828 0.088819 0.564592 55 54 55 255 
0.020832 0.08869099 0.567513 55 54 55 255 
0.020586 0.085319 0.569599 55 54 55 255 
-0.01743271 0.03281907 0.5781705 55 54 55 255 
0.003974501 0.088819 0.5676365 55 54 55 255 
-0.01742724 -0.01618107 0.5781243 55 54 55 255 
-0.019007 -0.016181 0.591495 55 54 55 255 
-0.019007 0.032819 0.591495 55 54 55 255 
-0.01742427 0.08881875 0.5780976 55 54 55 255 
0.02217106 0.085319 0.595866 55 54 55 255 
-0.01505122 0.08531932 0.5914623 55 54 55 255 
0.01754664 -0.08268108 0.595323 55 54 55 255 
0.01155937 0.07557753 0.5948036 55 54 55 255 
0.01475467 0.07311054 0.5951961 55 54 55 255 
0.01265405 0.06271923 0.5962665 55 54 55 255 
0.011412 0.05398962 0.594574 55 54 55 255 
0.00922625 0.04757419 0.5945297 55 54 55 255 
0.01518148 0.05182096 0.5954611 55 54 55 255 
0.01307842 0.04283036 0.5949878 55 54 55 255 
0.01092713 0.03800569 0.5943025 55 54 55 255 
0.01344407 0.03746869 0.5959243 55 54 55 255 
0.01092713 0.03071919 0.5943025 55 54 55 255 
0.01284227 0.03024291 0.5951864 55 54 55 255 
0.01227429 0.02564231 0.594896 55 54 55 255 
0.01365393 0.02380491 0.5959538 55 54 55 255 
0.01314708 0.01571401 0.5952284 55 54 55 255 
0.01004162 0.007316375 0.5950853 55 54 55 255 
0.01400314 0.01104386 0.595329 55 54 55 255 
0.01091912 0.003338186 0.5956223 55 54 55 255 
0.009085543 -0.001004793 0.5962791 55 54 55 255 
0.01356264 -0.00116896 0.5948223 55 54 55 255 
0.01730621 0.0008356869 0.5973364 55 54 55 255 
0.01263447 -0.007025965 0.5953893 55 54 55 255 
0.01233945 -0.01425786 0.5949209 55 54 55 255 
0.009064266 -0.01327087 0.5962727 55 54 55 255 
0.01139954 -0.01988583 0.5946795 55 54 55 255 
0.01284668 -0.02241374 0.5956322 55 54 55 255 
0.01161132 -0.03234109 0.5945997 55 54 55 255 
0.01229548 -0.03636143 0.5951712 55 54 55 255 
0.02820321 0.08882289 0.5706552 55 54 55 255 
0.01091658 0.08281174 0.59474 55 54 55 255 
-0.01743379 -0.08617976 0.5781823 55 54 55 255 
-0.01496795 -0.086181 0.5914789 55 54 55 255 
-0.01732949 0.08662593 0.5786861 55 54 55 255 
-0.019031 0.088819 0.591704 55 54 55 255 
-0.019031 -0.086181 0.591704 55 54 55 255 
-0.0131283 0.088819 0.5635021 55 54 55 255 
0.0009355005 0.088819 0.5933575 55 54 55 255 
0.01079583 0.06436191 0.5945049 55 54 55 255 
0.01106276 0.04517711 0.5951936 55 54 55 255 
0.01123348 0.01747156 0.5954376 55 54 55 255 
0.01121264 -0.02821462 0.594997 55 54 55 255 
0.01443415 -0.04418886 0.5953841 55 54 55 255 
-0.001019043 -0.08617991 0.5952413 55 54 55 255 
0.01754696 0.08531903 0.5953203 55 54 55 255 
-0.01641438 0.08881813 0.5934224 55 54 55 255 
0.008958995 0.083219 0.59642 55 54 55 255 
0.01086215 -0.04698086 0.5966272 55 54 55 255 
0.02736159 0.08881033 0.5957739 55 54 55 255 
0.030302 0.087979 0.570888 55 54 55 255 
0.03027325 -0.0853935 0.5708317 55 54 55 255 
0.02736381 -0.08616566 0.5957735 55 54 55 255 
0.0302445 0.088084 0.5707753 55 54 55 255 
0.02899975 -0.06233606 0.5819078 55 54 55 255 
0.020725 -0.086181 0.569615 55 54 55 255 
0.020725 -0.038581 0.569615 55 54 55 255 
0.020971 -0.086181 0.56753 55 54 55 255 
0.020971 -0.038581 0.56753 55 54 55 255 
0.02778406 -0.08605646 0.5683347 55 54 55 255 
0.03028784 -0.086181 0.5700588 55 54 55 255 
0.03028216 0.088819 0.570038 55 54 55 255 
0.02781525 0.065019 0.5683662 55 54 55 255 
0.01744003 0.088819 0.597422 55 54 55 255 
0.01744003 -0.086181 0.5974221 55 54 55 255 
0.017686 -0.086181 0.595336 55 54 55 255 
0.017686 0.088819 0.595336 55 54 55 255 
0.022171 -0.086181 0.595866 55 54 55 255 
0.022171 0.088819 0.595866 55 54 55 255 
0.02825253 -0.08571137 0.5705498 55 54 55 255 
0.02675569 -0.06011047 0.5830024 55 54 55 255 
0.025414 -0.086181 0.594363 55 54 55 255 
0.025414 0.088819 0.594363 55 54 55 255 
0.028438 0.001319 0.568764 55 54 55 255 
0.002697336 -0.02387462 0.553765 55 54 55 255 
0.0215521 -0.03721089 0.5537645 55 54 55 255 
-0.02669938 -0.01877651 0.553765 55 54 55 255 
-0.02088797 0.02547987 0.553765 55 54 55 255 
0.002697336 0.02651261 0.552714 55 54 55 255 
-0.02669939 0.02141108 0.552714 55 54 55 255 
0.02159313 0.03982659 0.5537649 55 54 55 255 
0.02159899 0.03981909 0.552714 55 54 55 255 
0.02159899 -0.03718114 0.552714 55 54 55 255 
-0.02103538 -0.02366081 0.552714 55 54 55 255 
0.02982563 -0.004578806 0.5583727 55 54 55 255 
0.02509976 0.040519 0.5642643 55 54 55 255 
0.02509842 -0.03799822 0.5642664 55 54 55 255 
0.0201991 -0.08618194 0.5502625 55 54 55 255 
0.02019907 0.04052104 0.553765 55 54 55 255 
0.02019808 0.0405187 0.5642641 55 54 55 255 
-0.0204068 -0.03784061 0.557265 55 54 55 255 
0.02019916 0.08881951 0.5677663 55 54 55 255 
0.02480694 0.001318999 0.5740404 55 54 55 255 
0.022729 0.001318999 0.5750037 55 54 55 255 
0.02050919 0.001318999 0.574059 55 54 55 255 
0.02738201 0.09014886 0.5538553 55 54 55 255 
0.009731919 0.001355379 0.5573361 55 54 55 255 
0.02019775 -0.03787554 0.5628616 55 54 55 255 
0.001997504 -0.02311804 0.5537651 55 54 55 255 
-0.01239906 0.02585401 0.5537652 55 54 55 255 
-0.02720029 0.04051851 0.553765 55 54 55 255 
-0.02740149 0.0248488 0.5572649 55 54 55 255 
-0.01620177 -0.08432572 0.5897565 55 54 55 255 
-0.01382148 -0.08268122 0.5655368 55 54 55 255 
0.02541399 -0.08271171 0.594363 55 54 55 255 
0.008998486 -0.08416438 0.5722637 55 54 55 255 
0.01394605 -0.08460701 0.5720915 55 54 55 255 
0.02218335 -0.08403195 0.5865351 55 54 55 255 
0.0268698 -0.08476079 0.5703414 55 54 55 255 
0.01710643 -0.08304375 0.5867631 55 54 55 255 
-0.007810589 -0.08440489 0.5744538 55 54 55 255 
0.02216909 -0.08281817 0.5958659 55 54 55 255 
-0.01191769 -0.08268454 0.591794 55 54 55 255 
0.008451063 -0.08373434 0.5857869 55 54 55 255 
0.02752401 -0.08261195 0.5707008 55 54 55 255 
-0.001509385 -0.08340074 0.5869378 55 54 55 255 
-0.001895361 0.08532533 0.566959 55 54 55 255 
0.0109716 0.08637301 0.5805557 55 54 55 255 
0.0238732 0.08571845 0.5842547 55 54 55 255 
0.002276405 0.08641907 0.5797288 55 54 55 255 
-0.003927086 0.0862992 0.5745003 55 54 55 255 
0.02541397 0.08544163 0.5943632 55 54 55 255 
0.02821893 0.08515595 0.5704941 55 54 55 255 
0.009085447 0.08660743 0.5893654 55 54 55 255 
0.005978792 0.08641801 0.5802553 55 54 55 255 
-0.01159593 0.08629208 0.590807 55 54 55 255 
0.005589992 0.08628379 0.5715145 55 54 55 255 
-0.02832835 -0.014081 0.586869 55 54 55 255 
-0.02548387 -0.01412439 0.5618848 55 54 55 255 
-0.02537204 0.016719 0.561843 55 54 55 255 
-0.02782182 0.001681227 0.58647 55 54 55 255 
-0.02515082 -0.01061712 0.5627127 55 54 55 255 
-0.02239772 -0.01431398 0.5780929 55 54 55 255 
-0.02539493 0.004974121 0.5861318 55 54 55 255 
-0.02422175 -0.006132442 0.5630844 55 54 55 255 
-0.02757294 0.01386097 0.5853519 55 54 55 255 
-0.02267939 0.01289484 0.5789327 55 54 55 255 
-0.02471661 0.002616324 0.5626742 55 54 55 255 
3 0 1 2 
3 2 1 3 
3 2 3 4 
3 4 3 5 
3 4 5 6 
3 6 5 7 
3 6 7 8 
3 8 7 9 
3 8 9 10 
3 10 9 11 
3 10 11 0 
3 0 11 1 
3 12 1 13 
3 13 1 11 
3 13 11 32 
3 32 11 9 
3 32 9 14 
3 14 9 7 
3 14 7 15 
3 15 7 5 
3 15 5 16 
3 16 5 3 
3 16 3 12 
3 12 3 1 
3 8 10 17 
3 17 10 18 
3 10 0 18 
3 18 0 19 
3 0 2 19 
3 19 2 20 
3 2 4 20 
3 20 4 21 
3 4 6 21 
3 21 6 22 
3 6 8 22 
3 22 8 17 
3 21 15 20 
3 20 15 16 
3 20 16 19 
3 19 16 12 
3 19 12 18 
3 18 12 13 
3 18 13 17 
3 17 13 32 
3 17 32 22 
3 22 32 14 
3 22 14 21 
3 21 14 15 
3 25 26 24 
3 25 24 23 
3 24 26 23 
3 23 26 25 
3 33 14 27 
3 27 14 15 
3 27 15 28 
3 28 15 16 
3 28 16 29 
3 29 16 12 
3 29 12 30 
3 30 12 13 
3 30 13 31 
3 31 13 32 
3 31 32 33 
3 33 32 14 
3 14 32 15 
3 15 32 16 
3 12 32 13 
3 16 32 12 
3 30 33 29 
3 31 33 30 
3 29 33 28 
3 28 33 27 
3 36 34 35 
3 37 34 36 
3 37 36 34 
3 34 36 35 
3 41 38 40 
3 39 38 41 
3 39 41 38 
3 38 41 40 
3 67 44 45 
3 45 44 48 
3 47 48 53 
3 47 53 57 
3 50 49 57 
3 50 57 49 
3 66 49 50 
3 66 50 51 
3 50 49 66 
3 51 50 46 
3 46 50 52 
3 46 52 53 
3 55 47 46 
3 55 46 53 
3 46 47 55 
3 55 53 54 
3 55 54 43 
3 43 59 55 
3 43 42 59 
3 59 42 43 
3 67 42 44 
3 48 47 45 
3 47 57 56 
3 56 57 42 
3 55 59 58 
3 58 59 60 
3 58 60 62 
3 62 60 61 
3 67 55 58 
3 67 58 62 
3 67 62 56 
3 56 62 63 
3 56 63 64 
3 56 64 47 
3 47 64 51 
3 47 51 46 
3 47 46 45 
3 45 46 55 
3 45 55 67 
3 63 61 65 
3 63 65 66 
3 63 66 64 
3 64 66 51 
3 42 59 44 
3 44 59 43 
3 44 43 54 
3 44 54 48 
3 48 54 53 
3 53 52 57 
3 57 52 50 
3 57 50 66 
3 57 66 65 
3 57 65 42 
3 42 65 61 
3 42 61 60 
3 42 60 59 
3 42 67 56 
3 62 67 63 
3 61 68 62 
3 62 68 67 
3 63 67 68 
3 63 68 61 
3 77 82 73 
3 73 82 70 
3 73 70 69 
3 69 71 72 
3 72 71 83 
3 73 74 75 
3 75 74 76 
3 75 76 77 
3 77 76 78 
3 72 88 79 
3 72 79 80 
3 80 79 81 
3 80 81 73 
3 81 71 74 
3 81 74 73 
3 74 71 81 
3 71 69 70 
3 78 76 84 
3 78 84 85 
3 85 84 86 
3 85 86 83 
3 83 86 88 
3 83 88 87 
3 87 88 72 
3 70 74 71 
3 71 74 81 
3 71 81 79 
3 71 79 88 
3 90 88 86 
3 86 84 82 
3 82 84 76 
3 82 76 70 
3 70 76 74 
3 89 90 78 
3 78 90 86 
3 78 86 77 
3 77 86 82 
3 73 75 77 
3 78 85 89 
3 89 85 83 
3 83 87 72 
3 72 80 69 
3 69 80 73 
3 83 71 88 
3 83 88 90 
3 83 90 89 
3 86 91 90 
3 86 90 91 
3 95 92 94 
3 95 94 111 
3 95 111 96 
3 98 97 111 
3 98 111 97 
3 99 98 101 
3 101 98 97 
3 101 97 98 
3 99 101 100 
3 100 101 103 
3 100 103 102 
3 102 103 94 
3 93 102 104 
3 104 102 94 
3 102 93 104 
3 104 94 105 
3 104 105 115 
3 106 115 105 
3 106 105 92 
3 106 92 105 
3 112 92 93 
3 93 92 95 
3 115 106 114 
3 114 106 112 
3 114 112 107 
3 114 107 108 
3 108 107 110 
3 108 110 109 
3 109 110 98 
3 109 98 99 
3 112 106 92 
3 92 106 105 
3 92 105 94 
3 94 103 101 
3 94 101 111 
3 111 101 98 
3 98 110 107 
3 115 107 112 
3 115 112 93 
3 115 114 113 
3 113 114 108 
3 113 108 109 
3 113 109 96 
3 96 109 99 
3 96 99 95 
3 95 99 100 
3 95 100 102 
3 95 102 93 
3 93 102 104 
3 93 104 115 
3 96 111 113 
3 113 111 98 
3 113 98 107 
3 113 114 115 
3 107 115 113 
3 115 114 113 
3 127 134 117 
3 117 134 116 
3 117 116 119 
3 117 119 118 
3 118 119 128 
3 125 120 121 
3 121 120 123 
3 121 123 122 
3 122 123 116 
3 122 116 124 
3 118 131 126 
3 118 126 125 
3 125 126 120 
3 120 126 119 
3 120 119 126 
3 124 116 133 
3 124 133 129 
3 129 131 130 
3 130 131 118 
3 116 123 120 
3 116 120 119 
3 119 120 126 
3 119 126 131 
3 134 131 133 
3 134 133 116 
3 124 134 127 
3 124 129 132 
3 132 129 130 
3 132 130 128 
3 128 130 118 
3 118 125 117 
3 117 125 121 
3 117 121 122 
3 117 122 127 
3 127 122 124 
3 128 119 132 
3 132 119 131 
3 132 131 134 
3 132 134 124 
3 131 134 133 
3 129 133 131 
3 131 133 134 
3 143 144 135 
3 135 144 140 
3 135 140 138 
3 135 138 136 
3 136 138 139 
3 142 140 141 
3 136 149 137 
3 136 137 142 
3 140 138 137 
3 142 137 140 
3 140 137 138 
3 141 140 144 
3 141 144 145 
3 145 144 146 
3 145 146 143 
3 148 147 149 
3 148 149 136 
3 138 140 137 
3 138 137 149 
3 149 147 151 
3 151 147 146 
3 151 146 150 
3 150 146 144 
3 139 151 143 
3 143 151 150 
3 143 150 144 
3 143 141 145 
3 139 143 148 
3 139 148 136 
3 136 142 135 
3 135 142 141 
3 135 141 143 
3 139 138 149 
3 139 149 151 
3 148 143 147 
3 147 143 146 
3 156 153 159 
3 156 159 157 
3 158 178 159 
3 158 159 178 
3 160 158 161 
3 161 158 178 
3 161 178 158 
3 160 161 162 
3 162 161 163 
3 162 163 164 
3 164 163 165 
3 164 165 155 
3 155 154 164 
3 167 154 155 
3 167 155 165 
3 164 154 167 
3 167 165 166 
3 167 166 169 
3 167 169 168 
3 168 169 170 
3 171 153 169 
3 170 152 171 
3 171 152 153 
3 152 170 169 
3 152 169 153 
3 154 153 156 
3 157 159 178 
3 170 171 172 
3 172 171 174 
3 172 174 173 
3 173 174 175 
3 177 175 176 
3 177 176 158 
3 177 158 160 
3 153 165 159 
3 159 165 163 
3 159 163 161 
3 159 161 178 
3 178 161 158 
3 178 158 176 
3 178 176 175 
3 175 174 171 
3 175 171 153 
3 153 171 169 
3 153 169 166 
3 153 166 165 
3 179 178 175 
3 179 175 153 
3 179 153 154 
3 156 164 154 
3 154 164 167 
3 154 167 168 
3 154 168 170 
3 154 170 179 
3 179 170 172 
3 179 172 173 
3 179 173 157 
3 157 173 177 
3 157 177 160 
3 157 160 156 
3 156 160 162 
3 156 162 164 
3 175 177 173 
3 157 177 173 
3 177 157 173 
3 179 157 178 
3 180 185 181 
3 180 181 182 
3 182 181 183 
3 182 183 184 
3 184 183 199 
3 184 199 186 
3 186 199 187 
3 188 193 192 
3 188 192 180 
3 180 192 185 
3 186 187 191 
3 191 187 196 
3 191 196 188 
3 188 196 193 
3 188 181 185 
3 188 185 190 
3 188 190 189 
3 189 190 192 
3 189 192 191 
3 191 192 193 
3 191 193 194 
3 194 193 195 
3 194 195 196 
3 194 196 184 
3 184 196 198 
3 184 198 197 
3 197 198 199 
3 197 199 180 
3 188 189 191 
3 191 194 186 
3 186 194 184 
3 184 197 182 
3 182 197 180 
3 180 200 188 
3 199 198 187 
3 187 198 196 
3 196 195 193 
3 192 190 185 
3 181 201 183 
3 183 201 199 
3 180 199 201 
3 180 201 200 
3 200 201 181 
3 200 181 188 
3 208 209 202 
3 202 209 203 
3 202 203 204 
3 204 203 205 
3 204 205 219 
3 219 205 222 
3 219 222 206 
3 212 207 213 
3 213 207 216 
3 213 216 208 
3 208 216 209 
3 206 222 210 
3 210 222 211 
3 210 211 212 
3 212 211 207 
3 213 203 214 
3 213 214 215 
3 215 214 216 
3 215 216 210 
3 210 216 218 
3 210 218 217 
3 217 218 211 
3 217 211 219 
3 219 211 220 
3 219 220 221 
3 221 220 222 
3 221 222 202 
3 219 221 204 
3 204 221 202 
3 202 223 208 
3 208 223 213 
3 213 215 212 
3 212 215 210 
3 210 217 206 
3 206 217 219 
3 216 214 209 
3 209 214 203 
3 203 224 205 
3 205 224 222 
3 222 220 211 
3 211 218 207 
3 207 218 216 
3 202 222 224 
3 202 224 223 
3 223 224 203 
3 223 203 213 
3 247 228 245 
3 245 228 225 
3 245 225 242 
3 242 225 226 
3 242 226 239 
3 239 226 244 
3 239 244 229 
3 229 244 240 
3 231 232 227 
3 227 232 236 
3 227 236 247 
3 247 236 228 
3 229 240 235 
3 235 240 230 
3 235 230 231 
3 231 230 232 
3 227 225 228 
3 227 228 233 
3 233 228 234 
3 233 234 236 
3 233 236 235 
3 235 236 238 
3 235 238 237 
3 237 238 230 
3 237 230 239 
3 239 230 240 
3 239 240 241 
3 241 240 243 
3 241 243 242 
3 242 243 244 
3 242 244 245 
3 239 241 242 
3 245 246 247 
3 227 233 231 
3 231 233 235 
3 235 237 229 
3 229 237 239 
3 225 248 226 
3 226 248 244 
3 244 243 240 
3 230 238 232 
3 232 238 236 
3 236 234 228 
3 245 244 248 
3 245 248 246 
3 246 248 247 
3 247 248 225 
3 247 225 227 
3 251 249 250 
3 251 250 249 
3 258 259 257 
3 257 259 254 
3 257 254 256 
3 256 254 255 
3 258 257 260 
3 260 257 261 
3 262 433 263 
3 263 433 432 
3 264 434 262 
3 262 434 433 
3 265 266 264 
3 264 266 434 
3 263 432 265 
3 265 432 266 
3 254 259 268 
3 268 259 269 
3 255 254 270 
3 270 254 297 
3 272 270 271 
3 255 270 272 
3 256 255 273 
3 273 255 272 
3 277 257 274 
3 274 257 256 
3 274 256 275 
3 275 256 273 
3 301 276 280 
3 257 277 278 
3 257 278 261 
3 277 274 279 
3 277 279 280 
3 281 282 283 
3 283 282 284 
3 285 251 287 
3 287 251 252 
3 253 252 286 
3 253 286 281 
3 281 286 267 
3 252 249 286 
3 286 249 251 
3 252 251 249 
3 288 287 252 
3 289 276 290 
3 290 276 301 
3 278 289 261 
3 261 289 290 
3 261 290 260 
3 260 290 291 
3 282 269 284 
3 284 269 259 
3 284 259 292 
3 292 259 258 
3 292 258 291 
3 291 258 260 
3 283 284 293 
3 293 284 292 
3 283 293 281 
3 281 293 294 
3 253 281 295 
3 295 281 294 
3 266 252 434 
3 434 252 253 
3 434 253 433 
3 433 253 295 
3 433 295 432 
3 432 295 288 
3 432 288 266 
3 266 288 252 
3 267 299 296 
3 296 299 304 
3 296 342 267 
3 267 342 268 
3 268 269 267 
3 267 269 282 
3 267 282 281 
3 254 268 342 
3 254 342 297 
3 270 297 298 
3 298 297 300 
3 299 342 304 
3 298 300 421 
3 271 270 427 
3 427 270 298 
3 271 427 272 
3 272 427 426 
3 272 426 273 
3 273 426 409 
3 419 273 409 
3 275 273 419 
3 274 275 279 
3 279 275 419 
3 280 279 408 
3 280 276 289 
3 280 289 278 
3 280 278 277 
3 302 285 287 
3 303 251 285 
3 286 251 299 
3 286 299 267 
3 251 303 299 
3 301 302 287 
3 295 301 287 
3 295 287 288 
3 293 292 294 
3 294 292 291 
3 294 291 295 
3 295 291 290 
3 295 290 301 
3 300 342 421 
3 421 342 339 
3 300 297 342 
3 342 296 304 
3 426 427 305 
3 305 427 350 
3 350 427 298 
3 350 298 306 
3 306 298 421 
3 306 421 339 
3 416 409 305 
3 305 409 426 
3 407 408 417 
3 417 408 307 
3 408 279 307 
3 307 279 419 
3 307 419 416 
3 416 419 409 
3 314 315 316 
3 316 317 318 
3 327 346 321 
3 321 346 327 
3 327 346 323 
3 271 335 367 
3 301 280 337 
3 407 338 280 
3 407 280 408 
3 417 338 407 
3 339 343 306 
3 339 299 340 
3 340 299 303 
3 301 337 302 
3 302 337 341 
3 302 341 285 
3 285 341 340 
3 285 340 303 
3 299 339 342 
3 333 334 327 
3 332 347 327 
3 331 332 327 
3 329 331 327 
3 328 329 327 
3 324 326 327 
3 323 324 327 
3 320 346 327 
3 319 320 327 
3 318 319 327 
3 316 318 327 
3 314 316 327 
3 313 345 327 
3 344 310 327 
3 309 344 327 
3 343 350 306 
3 307 416 350 
3 350 416 305 
3 307 338 417 
3 350 308 327 
3 327 308 309 
3 310 311 327 
3 327 311 313 
3 327 345 314 
3 330 329 328 
3 327 347 333 
3 327 334 348 
3 353 327 348 
3 307 349 338 
3 338 349 341 
3 338 341 280 
3 280 341 337 
3 341 349 351 
3 351 340 341 
3 339 340 343 
3 343 351 350 
3 340 351 343 
3 350 327 307 
3 308 350 351 
3 336 308 351 
3 351 352 336 
3 348 334 353 
3 311 310 352 
3 352 308 336 
3 325 326 324 
3 346 320 352 
3 324 352 325 
3 323 352 324 
3 323 322 352 
3 352 322 323 
3 352 323 346 
3 330 328 352 
3 352 327 325 
3 352 328 327 
3 325 327 326 
3 345 313 352 
3 352 313 312 
3 352 312 313 
3 313 311 352 
3 332 353 347 
3 330 352 353 
3 330 353 329 
3 315 314 352 
3 333 347 353 
3 353 334 333 
3 344 309 352 
3 309 308 352 
3 332 331 353 
3 353 331 329 
3 344 352 310 
3 352 314 345 
3 352 317 316 
3 318 317 352 
3 316 315 352 
3 320 319 352 
3 352 319 318 
3 349 353 351 
3 351 353 352 
3 349 327 353 
3 327 349 307 
3 354 355 358 
3 355 356 358 
3 357 354 368 
3 357 368 369 
3 354 359 355 
3 356 359 357 
3 357 359 374 
3 355 359 356 
3 357 374 359 
3 357 359 354 
3 360 374 361 
3 361 374 275 
3 362 360 363 
3 363 360 361 
3 362 363 364 
3 356 357 365 
3 356 365 358 
3 358 365 366 
3 358 366 354 
3 369 368 370 
3 370 368 371 
3 370 371 372 
3 372 371 373 
3 375 359 374 
3 374 359 375 
3 372 373 376 
3 376 373 377 
3 364 374 360 
3 364 360 362 
3 369 370 372 
3 369 372 357 
3 374 365 376 
3 376 365 357 
3 374 364 365 
3 376 357 372 
3 363 361 275 
3 275 378 364 
3 275 364 363 
3 364 378 365 
3 365 378 366 
3 366 378 367 
3 378 271 367 
3 373 371 368 
3 377 354 335 
3 335 354 366 
3 373 368 354 
3 335 366 367 
3 373 354 377 
3 377 335 271 
3 271 378 275 
3 271 275 377 
3 377 275 375 
3 377 375 376 
3 376 375 374 
3 374 375 275 
3 385 382 380 
3 382 379 380 
3 379 381 380 
3 381 382 385 
3 382 383 379 
3 382 388 384 
3 382 384 383 
3 379 388 381 
3 381 388 382 
3 379 383 388 
3 384 381 385 
3 386 385 387 
3 387 385 380 
3 380 381 384 
3 386 388 383 
3 387 388 386 
3 383 384 386 
3 386 384 385 
3 384 388 380 
3 388 387 380 
3 400 396 389 
3 396 390 391 
3 389 396 392 
3 392 396 391 
3 400 389 392 
3 406 404 395 
3 395 404 403 
3 395 404 406 
3 394 390 396 
3 401 402 393 
3 393 402 394 
3 406 401 393 
3 405 406 393 
3 401 395 402 
3 390 394 397 
3 397 394 398 
3 398 394 399 
3 394 402 399 
3 397 391 390 
3 402 391 399 
3 399 391 398 
3 398 391 397 
3 391 402 392 
3 401 406 395 
3 396 393 394 
3 402 393 392 
3 392 393 400 
3 396 400 393 
3 404 395 403 
3 403 395 405 
3 406 405 395 
3 402 395 403 
3 403 393 402 
3 393 404 405 
3 404 393 403 
3 405 404 403 
3 413 415 408 
3 408 415 407 
3 416 412 409 
3 415 413 407 
3 413 410 416 
3 413 416 410 
3 410 416 420 
3 417 413 410 
3 416 417 420 
3 411 413 418 
3 416 420 418 
3 413 416 414 
3 419 413 414 
3 418 413 419 
3 416 418 414 
3 414 412 416 
3 411 416 420 
3 410 413 411 
3 407 413 417 
3 413 408 419 
3 419 412 413 
3 412 419 409 
3 410 411 418 
3 411 410 420 
3 420 416 411 
3 412 414 419 
3 412 419 413 
3 413 419 414 
3 414 416 413 
3 419 410 418 
3 420 410 411 
3 420 416 410 
3 407 417 410 
3 415 408 407 
3 408 415 419 
3 409 412 416 
3 414 416 412 
3 414 412 409 
3 407 410 419 
3 415 407 419 
3 417 416 420 
3 415 407 417 
3 415 417 416 
3 415 416 407 
3 407 416 417 
3 420 416 418 
3 414 409 419 
3 418 416 414 
3 421 428 423 
3 423 428 427 
3 339 306 425 
3 423 430 426 
3 306 339 425 
3 425 339 306 
3 421 431 424 
3 429 430 422 
3 421 429 422 
3 428 421 427 
3 428 430 423 
3 422 428 421 
3 421 428 430 
3 430 428 421 
3 422 430 428 
3 424 430 429 
3 421 424 429 
3 430 421 431 
3 421 425 431 
3 426 427 423 
3 427 421 423 
3 305 426 430 
3 430 306 305 
3 421 430 431 
3 421 428 427 
3 422 306 429 
3 428 305 306 
3 428 306 422 
3 425 306 339 
3 306 430 424 
3 421 424 431 
3 423 426 305 
3 428 421 427 
3 425 421 431 
3 429 306 424 
3 424 421 429 
3 429 421 422 
3 422 421 428 
3 428 427 305 
3 305 427 428 
3 305 428 423 
3 426 423 427 
3 437 435 432 
3 433 432 435 
3 433 435 437 
3 433 436 435 
3 433 435 436 
3 439 438 436 
3 436 438 435 
3 439 440 434 
3 437 439 436 
3 437 436 433 
3 441 439 437 
3 437 438 441 
3 439 436 435 
3 439 435 438 
3 434 439 440 
3 439 434 440 
3 441 440 434 
3 434 442 441 
3 442 440 439 
3 442 434 440 
3 442 434 440 
3 440 441 442 
3 440 441 438 
3 441 442 439 
3 435 438 437 
3 441 434 442 
3 440 438 435 
3 434 441 440 
3 433 436 262 
3 262 436 439 
3 262 439 434 
3 262 434 264 
3 263 432 262 
3 262 432 433 
3 266 440 265 
3 265 440 435 
3 265 435 263 
3 263 435 432 
3 265 440 266 
3 264 434 265 
3 265 434 440 
3 262 264 263 
3 263 264 265 
